<?xml version="1.0" standalone="no"?>
<!DOCTYPE svg PUBLIC "-//W3C//DTD SVG 20010904//EN"
 "http://www.w3.org/TR/2001/REC-SVG-20010904/DTD/svg10.dtd">
<svg version="1.0" xmlns="http://www.w3.org/2000/svg"
 width="1280.000000pt" height="720.000000pt" viewBox="0 0 1280.000000 720.000000"
 preserveAspectRatio="xMidYMid meet">

<g transform="translate(0.000000,720.000000) scale(0.100000,-0.100000)"
fill="#000000" stroke="none">
<path d="M0 3600 l0 -3600 6400 0 6400 0 0 3600 0 3600 -6400 0 -6400 0 0
-3600z m11870 2983 c53 -89 98 -164 101 -167 3 -3 33 42 67 99 l63 105 41 0
40 0 -21 -32 c-11 -18 -58 -95 -103 -171 -72 -119 -85 -135 -95 -121 -7 9 -61
100 -120 202 -59 101 -114 187 -120 189 -7 3 -19 3 -27 0 -11 -5 4 -40 65
-147 43 -78 79 -146 79 -151 0 -5 -15 -9 -32 -9 -32 0 -36 5 -100 123 -37 67
-83 150 -103 185 l-35 63 102 -3 102 -3 96 -162z m520 162 c0 -7 -210 -368
-220 -379 -5 -5 -16 6 -25 25 l-17 35 71 121 c39 67 71 126 71 132 0 13 -168
15 -186 3 -5 -4 -24 -30 -41 -58 -22 -37 -28 -55 -21 -67 8 -16 -15 -67 -31
-67 -8 0 -51 67 -51 81 0 5 23 48 52 95 l51 84 174 0 c95 0 173 -2 173 -5z
m-240 -409 c0 -19 -173 -307 -180 -299 -16 18 -170 303 -170 313 0 7 13 10 32
8 28 -3 36 -12 82 -96 28 -50 55 -91 60 -89 5 2 28 36 52 77 32 55 42 82 38
102 -3 16 1 37 12 53 l17 26 28 -43 c16 -24 29 -47 29 -52z m-9755 -2081 c33
-9 77 -27 97 -40 48 -32 90 -104 96 -166 l5 -49 -97 0 c-89 0 -96 2 -96 20 0
76 -88 123 -165 88 -38 -17 -58 -63 -63 -146 -8 -129 33 -192 127 -192 48 0
96 36 106 80 l7 30 89 0 89 0 0 -27 c0 -86 -55 -165 -143 -204 -44 -20 -68
-23 -157 -23 -124 0 -187 22 -245 85 -58 64 -69 100 -69 229 -1 100 2 122 22
165 40 86 90 127 187 151 70 17 140 17 210 -1z m1000 0 c104 -27 165 -86 165
-159 l0 -26 -90 0 c-86 0 -91 1 -99 24 -11 28 -29 36 -82 36 -50 0 -79 -15
-79 -41 0 -23 35 -40 120 -59 190 -41 250 -90 250 -202 0 -48 -27 -114 -56
-140 -50 -44 -115 -63 -224 -63 -113 0 -168 12 -220 47 -48 33 -72 70 -77 122
l-6 47 94 -3 c90 -3 94 -4 97 -26 8 -57 168 -71 189 -16 10 27 -21 45 -133 73
-124 32 -157 46 -199 90 -25 27 -30 41 -33 95 -7 110 39 168 158 200 72 19
152 20 225 1z m1057 -5 c70 -20 130 -70 163 -134 26 -51 30 -73 33 -151 6
-162 -36 -246 -152 -305 -67 -34 -73 -35 -180 -35 -106 0 -115 2 -179 33 -117
58 -163 151 -155 311 8 162 76 249 223 288 56 14 188 11 247 -7z m4311 6 c101
-24 155 -73 170 -153 l7 -33 -95 0 c-57 0 -95 4 -95 10 0 6 -9 19 -20 30 -37
37 -150 21 -150 -20 0 -22 38 -40 127 -60 120 -27 169 -48 208 -89 25 -27 30
-41 33 -99 4 -79 -14 -120 -68 -163 -92 -74 -325 -77 -431 -6 -38 25 -79 97
-79 139 l0 28 94 0 94 0 5 -29 c5 -23 14 -32 43 -41 72 -24 163 8 138 48 -12
19 -45 31 -172 63 -124 32 -178 77 -189 157 -8 58 4 107 34 142 64 76 209 108
346 76z m-7682 -20 c66 -24 122 -76 149 -138 34 -77 35 -231 2 -303 -31 -68
-76 -111 -141 -137 -48 -19 -81 -22 -243 -26 l-188 -4 0 317 0 317 188 -5
c140 -3 199 -9 233 -21z m809 -51 l0 -75 -170 0 -170 0 0 -45 0 -45 145 0 145
0 0 -70 0 -70 -145 0 -145 0 0 -50 0 -50 175 0 175 0 0 -75 0 -75 -275 0 -275
0 0 315 0 315 270 0 270 0 0 -75z m1000 -240 l0 -315 -95 0 -95 0 0 315 0 315
95 0 95 0 0 -315z m980 0 l0 -315 -95 0 -95 0 0 315 0 315 95 0 95 0 0 -315z
m1182 159 l133 -155 3 155 3 156 89 0 90 0 0 -315 0 -315 -87 0 -88 1 -130
151 -130 151 -3 -152 -3 -151 -89 0 -90 0 0 315 0 315 84 0 85 0 133 -156z
m1288 76 l0 -80 -100 0 -100 0 0 -235 0 -235 -100 0 -100 0 0 235 0 235 -105
0 -105 0 0 80 0 80 305 0 305 0 0 -80z m582 48 c111 -66 120 -235 17 -307 -21
-14 -38 -30 -39 -35 0 -4 30 -64 66 -132 l66 -124 -111 0 -111 0 -57 115 -58
115 -37 0 -38 0 0 -115 0 -115 -100 0 -100 0 0 316 0 316 228 -4 c227 -3 227
-3 274 -30z m728 -43 l0 -75 -170 0 -170 0 0 -45 0 -45 145 0 145 0 0 -70 0
-70 -145 0 -145 0 0 -50 0 -50 175 0 175 0 0 -75 0 -75 -275 0 -275 0 0 315 0
315 270 0 270 0 0 -75z m648 -2 l3 -73 -176 0 -175 0 0 -45 0 -45 150 0 150 0
0 -70 0 -70 -150 0 -150 0 0 -50 0 -50 175 0 175 0 0 -75 0 -75 -275 0 -275 0
0 315 0 315 273 -2 272 -3 3 -72z"/>
<path d="M4239 4097 c-41 -28 -58 -71 -58 -152 0 -123 49 -180 146 -173 59 5
88 25 109 75 18 42 18 155 0 198 -30 71 -130 97 -197 52z"/>
<path d="M860 3945 l0 -167 65 4 c54 3 70 9 92 30 51 51 53 206 3 262 -24 26
-35 30 -94 34 l-66 4 0 -167z"/>
<path d="M6620 4060 l0 -60 78 0 c85 0 112 14 112 58 0 44 -33 62 -115 62
l-75 0 0 -60z"/>
</g>
</svg>
