<?xml version="1.0" encoding="UTF-8"?>
<svg version="1.1" xmlns="http://www.w3.org/2000/svg" width="459" height="413">
<path d="M0 0 C0.68461807 -0.00978378 1.36923615 -0.01956757 2.07460022 -0.02964783 C4.35016926 -0.05966756 6.62567913 -0.08100765 8.90136719 -0.09985352 C9.67752129 -0.10642534 10.45367538 -0.11299717 11.2533493 -0.11976814 C15.36337969 -0.15239406 19.47338383 -0.17683426 23.58349609 -0.19628906 C26.98654952 -0.21409333 30.38877287 -0.24889253 33.79150391 -0.29882812 C37.89707621 -0.359014 42.00187954 -0.38976275 46.10787201 -0.39946175 C47.67242113 -0.4080228 49.23694937 -0.4268574 50.80124664 -0.45620537 C52.99470882 -0.49513368 55.1851805 -0.49615517 57.37890625 -0.48828125 C58.62609436 -0.49858871 59.87328247 -0.50889618 61.15826416 -0.51951599 C66.53286777 0.67018452 68.17106115 4.24221475 71.09472656 8.74389648 C71.57232422 9.57791992 72.04992187 10.41194336 72.54199219 11.27124023 C73.09072998 12.22168213 73.63946777 13.17212402 74.20483398 14.15136719 C74.78015869 15.16030029 75.3554834 16.1692334 75.94824219 17.20874023 C77.1937122 19.36925617 78.4398201 21.52940449 79.68652344 23.68920898 C80.31381348 24.7789502 80.94110352 25.86869141 81.58740234 26.99145508 C84.40101466 31.85602909 87.26736081 36.68882876 90.13574219 41.52124023 C94.11012641 48.22950461 98.05200547 54.95479098 101.94824219 61.70874023 C105.89214542 68.54225017 109.87305062 75.35288113 113.88574219 82.14624023 C114.69144653 83.51087402 114.69144653 83.51087402 115.51342773 84.90307617 C118.29840138 89.60962741 121.10428607 94.30236002 123.94042969 98.97827148 C124.49802979 99.89938721 125.05562988 100.82050293 125.63012695 101.76953125 C126.69695589 103.52894444 127.76760879 105.28604604 128.8425293 107.04052734 C129.31698486 107.82306885 129.79144043 108.60561035 130.28027344 109.41186523 C130.70026611 110.09925781 131.12025879 110.78665039 131.55297852 111.49487305 C132.44824219 113.20874023 132.44824219 113.20874023 132.44824219 115.20874023 C135.94567645 114.04292881 136.14479819 113.50358304 137.86621094 110.41186523 C138.53450928 109.23092285 138.53450928 109.23092285 139.21630859 108.02612305 C139.68472168 107.17888672 140.15313477 106.33165039 140.63574219 105.45874023 C141.62524411 103.70795759 142.61613446 101.95795895 143.60839844 100.20874023 C144.09324707 99.35022461 144.5780957 98.49170898 145.07763672 97.60717773 C147.44775567 93.45968066 149.97703102 89.41775739 152.49902344 85.36108398 C154.61863128 81.93318112 156.69290655 78.480487 158.76074219 75.02124023 C159.51193518 73.77117467 160.26323994 72.52117627 161.01464844 71.27124023 C162.78661999 68.32113121 164.5393091 65.36014898 166.28808594 62.39624023 C167.25778482 60.77102944 168.22783155 59.14602614 169.19824219 57.52124023 C169.64594971 56.75465088 170.09365723 55.98806152 170.55493164 55.19824219 C175.14276911 47.56320174 175.14276911 47.56320174 179.44824219 45.20874023 C182.76140358 44.61132767 186.02469836 44.51259527 189.38574219 44.45874023 C190.26681641 44.4290918 191.14789063 44.39944336 192.05566406 44.36889648 C194.52005484 44.29136509 196.98294205 44.24461449 199.44824219 44.20874023 C201.18267578 44.17006836 201.18267578 44.17006836 202.95214844 44.13061523 C205.44824219 44.20874023 205.44824219 44.20874023 207.44824219 45.20874023 C206.98204014 50.5332584 204.90426372 54.16577455 202.01074219 58.52124023 C201.09329916 59.94307835 200.17800003 61.36630169 199.26464844 62.79077148 C198.56106201 63.88446045 198.56106201 63.88446045 197.84326172 65.00024414 C195.62157564 68.51746015 193.53566313 72.1107675 191.44824219 75.70874023 C188.1711374 81.33637788 184.80148169 86.89069543 181.32324219 92.39624023 C178.20502501 97.33432284 175.19322526 102.30970141 172.32324219 107.39624023 C169.23931311 112.85762061 166.01741319 118.20855316 162.70996094 123.53686523 C159.93268398 128.02585166 157.22353857 132.55560113 154.51074219 137.08374023 C153.99866211 137.93806641 153.48658203 138.79239258 152.95898438 139.67260742 C150.5754452 143.65122615 148.19524992 147.6318136 145.81933594 151.61499023 C145.41642334 152.28933105 145.01351074 152.96367187 144.59838867 153.65844727 C143.86088262 154.8929989 143.1246055 156.12828602 142.38989258 157.36450195 C140.18200133 161.05881452 137.85941132 164.64580727 135.44824219 168.20874023 C133.70214844 168.10717773 133.70214844 168.10717773 131.44824219 167.20874023 C129.91230941 165.09797321 128.6492222 163.10016515 127.38574219 160.83374023 C127.00289062 160.17180664 126.62003906 159.50987305 126.22558594 158.82788086 C125.39442231 157.38799644 124.56896833 155.94480471 123.74853516 154.4987793 C121.96767598 151.36238068 120.15681663 148.24366745 118.34765625 145.12353516 C117.40658027 143.4996373 116.46715405 141.87478238 115.52929688 140.24902344 C112.77600369 135.47859381 109.98497079 130.73492578 107.13574219 126.02124023 C103.31990785 119.70501887 99.59599222 113.33748654 95.88574219 106.95874023 C90.78109762 98.1839807 85.63226786 89.43683176 80.44824219 80.70874023 C75.87037068 73.00120096 71.30974634 65.28467551 66.80322266 57.53515625 C65.62418132 55.51157959 64.43975334 53.49113022 63.24951172 51.47412109 C60.71507834 47.17186024 58.24337998 42.8772404 55.99902344 38.41577148 C52.60176353 31.26352991 52.60176353 31.26352991 46.23339844 27.08374023 C43.18349335 26.79903497 40.4785281 26.80367664 37.44824219 27.20874023 C44.4952486 41.92863849 52.48945765 56.13748777 60.43218994 70.38555908 C61.41160603 72.14300115 62.38966734 73.90119802 63.36767578 75.65942383 C68.82495401 85.46748206 74.28781018 95.26675747 79.97900391 104.94140625 C85.00490843 113.48858404 89.4701736 122.12570991 93.44824219 131.20874023 C87.84397827 133.77406786 82.93589908 133.39065304 76.88574219 133.14624023 C75.84482422 133.13141602 74.80390625 133.1165918 73.73144531 133.10131836 C72.22807617 133.04427734 72.22807617 133.04427734 70.69433594 132.98608398 C69.3281311 132.94342407 69.3281311 132.94342407 67.93432617 132.89990234 C63.52326938 131.67357397 61.96776621 128.072933 59.71240234 124.32128906 C59.14312012 123.27996826 58.57383789 122.23864746 57.98730469 121.16577148 C57.67425385 120.59726974 57.361203 120.02876801 57.03866577 119.44303894 C56.04567555 117.63820733 55.05908231 115.8299857 54.07324219 114.02124023 C50.06566153 106.69755572 46.02954448 99.40858748 41.69482422 92.27148438 C40.25474674 89.88855945 38.89492446 87.47168842 37.57324219 85.02124023 C37.074375 84.09956055 36.57550781 83.17788086 36.06152344 82.22827148 C34.92680534 80.10445287 33.79989588 77.97645288 32.67871094 75.84545898 C28.46324409 67.84153242 24.05752739 59.97331708 19.48071289 52.16967773 C16.58774905 47.22710807 13.81048984 42.23336252 11.08154297 37.19848633 C9.29648824 33.93095566 7.47718049 30.6841335 5.65136719 27.43920898 C4.99629188 26.27196276 4.34134465 25.10464465 3.68652344 23.93725586 C2.6863539 22.15426985 1.68466179 20.37222913 0.67822266 18.59277344 C-0.31469015 16.83595297 -1.30049575 15.0751217 -2.28613281 13.31420898 C-3.1557666 11.76963013 -3.1557666 11.76963013 -4.04296875 10.19384766 C-5.53142362 7.248971 -6.59338936 4.36165484 -7.55175781 1.20874023 C-5.67835079 -0.66466679 -2.49954052 0.03190037 0 0 Z " fill="#DDB172" transform="translate(91.5517578125,86.791259765625)"/>
<path d="M0 0 C1.0263858 -0.00571014 2.05277161 -0.01142029 3.11026001 -0.01730347 C4.24071747 -0.01842133 5.37117493 -0.01953918 6.53588867 -0.02069092 C8.31641129 -0.02813828 8.31641129 -0.02813828 10.13290405 -0.03573608 C13.39315232 -0.04785558 16.6533647 -0.05530529 19.91363144 -0.05974674 C21.94890369 -0.06267598 23.98417029 -0.06678042 26.0194397 -0.07125092 C32.38288567 -0.08492465 38.74631875 -0.0945928 45.1097784 -0.09845281 C52.46424503 -0.10293815 59.81852622 -0.12050843 67.17293644 -0.1494534 C72.85279506 -0.17103495 78.53260136 -0.18115513 84.21250057 -0.18249393 C87.60744792 -0.18354419 91.00222093 -0.18949894 94.39712524 -0.20731354 C98.18050403 -0.22426974 101.96342537 -0.22251949 105.74682617 -0.21600342 C106.87728363 -0.2252182 108.00774109 -0.23443298 109.17245483 -0.243927 C110.19884064 -0.23835785 111.22522644 -0.2327887 112.28271484 -0.22705078 C113.17794357 -0.22851734 114.0731723 -0.2299839 114.99552917 -0.2314949 C115.7036525 -0.10875576 116.41177582 0.01398338 117.14135742 0.14044189 C118.13135742 1.62544189 118.13135742 1.62544189 119.14135742 3.14044189 C113.47745678 13.12258001 107.81567217 23.09756628 101.85620117 32.90679932 C97.85414065 39.54137719 94.03808994 46.28310967 90.20385742 53.01544189 C85.08996733 61.99343065 79.94122477 70.94673251 74.68041992 79.83966064 C69.74233091 88.18832843 64.87933689 96.58134728 59.99536133 104.96173096 C58.1022434 108.20750334 56.20616916 111.45153272 54.30932617 114.69512939 C53.68445313 115.76432617 53.05958008 116.83352295 52.41577148 117.93511963 C51.22705856 119.96891833 50.03765136 122.00231146 48.84741211 124.03521729 C48.30375 124.96583984 47.76008789 125.8964624 47.19995117 126.85528564 C46.68029785 127.74071045 46.16064453 128.62613525 45.62524414 129.53839111 C44.63775794 131.26998505 43.68573849 133.02230069 42.77075195 134.79327393 C42.1362915 136.01893066 42.1362915 136.01893066 41.48901367 137.26934814 C41.1294458 137.9932373 40.76987793 138.71712646 40.39941406 139.46295166 C39.14135742 141.14044189 39.14135742 141.14044189 36.99462891 141.88238525 C36.38304932 141.96754395 35.77146973 142.05270264 35.14135742 142.14044189 C34.54967773 141.00606689 33.95799805 139.87169189 33.34838867 138.70294189 C32.55037545 137.18202257 31.75218907 135.6611941 30.95385742 134.14044189 C30.56649414 133.39665283 30.17913086 132.65286377 29.7800293 131.88653564 C29.39008789 131.14532471 29.00014648 130.40411377 28.59838867 129.64044189 C28.20474121 128.89149658 27.81109375 128.14255127 27.40551758 127.37091064 C26.13186401 125.12369183 24.69830955 123.0661011 23.21557617 120.95294189 C21.09793455 117.54985758 21.09793455 117.54985758 21.44213867 114.30450439 C23.95200425 109.6309616 26.58270416 105.05417998 29.32885742 100.51544189 C30.44772755 98.6484824 31.56621516 96.78129361 32.68432617 94.91387939 C33.25183594 93.96891602 33.8193457 93.02395264 34.40405273 92.050354 C37.35712607 87.10408066 40.24776754 82.12166855 43.14135742 77.14044189 C57.78001813 51.97666941 57.78001813 51.97666941 64.07885742 41.65216064 C65.89502051 38.62098376 67.58244439 35.52519785 69.27026367 32.42095947 C69.80852783 31.43170975 70.34679199 30.44246002 70.90136719 29.42323303 C71.31056396 28.66991196 71.71976074 27.91659088 72.14135742 27.14044189 C64.15132352 26.78208059 56.169432 26.54120993 48.17237568 26.44353771 C44.45665327 26.39460139 40.75049552 26.30775579 37.03857422 26.12896729 C20.94590448 24.81795631 20.94590448 24.81795631 6.54846191 30.17004395 C2.30359933 35.10379849 -0.35354251 40.58954473 -2.76580811 46.59335327 C-4.34611802 50.27660953 -6.4501987 53.3521149 -8.73364258 56.64044189 C-11.34357919 60.41281168 -11.34357919 60.41281168 -11.65942383 64.80059814 C-10.88113653 67.31723807 -10.88113653 67.31723807 -9.17114258 70.07794189 C-7.85864258 73.14044189 -7.85864258 73.14044189 -8.53051758 75.92559814 C-9.9801822 79.43463927 -11.75177179 82.44254345 -13.79614258 85.64044189 C-16.39541498 89.72154248 -18.7625668 93.77745031 -20.85864258 98.14044189 C-22.17864258 98.14044189 -23.49864258 98.14044189 -24.85864258 98.14044189 C-26.61254883 95.96466064 -26.61254883 95.96466064 -28.42114258 92.82794189 C-28.75122314 92.26341309 -29.08130371 91.69888428 -29.42138672 91.11724854 C-30.16103558 89.84804957 -30.89393453 88.57490157 -31.62133789 87.29864502 C-32.9880957 84.91463969 -34.38642465 82.55081481 -35.78833008 80.18731689 C-36.79179051 78.48469626 -37.79439988 76.78157373 -38.79614258 75.07794189 C-39.28091064 74.25705078 -39.76567871 73.43615967 -40.26513672 72.59039307 C-40.71751709 71.81155762 -41.16989746 71.03272217 -41.63598633 70.23028564 C-42.24301392 69.19182495 -42.24301392 69.19182495 -42.86230469 68.13238525 C-43.8939685 66.06981601 -44.57615617 64.4326659 -44.85864258 62.14044189 C-44.15283203 60.33551025 -44.15283203 60.33551025 -42.97192383 58.48028564 C-42.53412598 57.77871338 -42.09632813 57.07714111 -41.64526367 56.35430908 C-41.15880371 55.60310791 -40.67234375 54.85190674 -40.17114258 54.07794189 C-39.67437012 53.28935791 -39.17759766 52.50077393 -38.66577148 51.68829346 C-37.61029218 50.01576979 -36.54926008 48.34673947 -35.4831543 46.68096924 C-33.89854035 44.20283688 -32.33093656 41.71482231 -30.76879883 39.22247314 C-25.51945792 30.8572043 -20.19430294 22.54252017 -14.83129883 14.24981689 C-12.4730258 10.53261822 -10.23732712 6.75335821 -8.05004883 2.93341064 C-5.89992335 -0.30235196 -3.63310856 0.01207208 0 0 Z " fill="#DDB072" transform="translate(254.858642578125,86.85955810546875)"/>
<path d="M0 0 C2.81170098 0.32935326 3.79118055 0.74291328 5.60546875 2.9765625 C6.12753906 3.85054687 6.64960938 4.72453125 7.1875 5.625 C7.785625 6.61113281 8.38375 7.59726563 9 8.61328125 C9.99 10.28970703 9.99 10.28970703 11 12 C12.16690543 13.94903385 13.33695383 15.89616015 14.50708008 17.84326172 C15.27571775 19.1255433 16.04133997 20.40963881 16.8034668 21.69580078 C18.5298345 24.60226161 20.28493911 27.41303563 22.20703125 30.19921875 C23.82035342 32.71937561 24.59226004 34.10884728 25 37 C23.75319004 39.71920412 22.44944557 42.18291304 20.9375 44.75 C20.49212891 45.52786865 20.04675781 46.3057373 19.58789062 47.10717773 C18.07165412 49.7458934 16.53646673 52.37301777 15 55 C13.85496229 56.97496687 12.71044643 58.95023638 11.56640625 60.92578125 C6.02526355 70.47289135 0.4254022 79.98563399 -5.17626953 89.49731445 C-13.97176607 104.4382682 -22.71184513 119.41032546 -31.26904297 134.48925781 C-31.73197754 135.30362305 -32.19491211 136.11798828 -32.671875 136.95703125 C-33.0750293 137.66835205 -33.47818359 138.37967285 -33.89355469 139.11254883 C-34.86978926 140.77787749 -35.92921977 142.39382965 -37 144 C-39.30664063 143.81103516 -39.30664063 143.81103516 -42 143 C-43.64648438 140.86474609 -43.64648438 140.86474609 -45.09375 138.0234375 C-45.64232666 136.9720459 -46.19090332 135.9206543 -46.75610352 134.83740234 C-47.33158936 133.69480957 -47.9070752 132.5522168 -48.5 131.375 C-49.42742877 129.58365354 -50.36133134 127.79577951 -51.29554749 126.00796509 C-51.93223505 124.7885952 -52.56693301 123.56818449 -53.19969177 122.34677124 C-56.17867893 116.60642669 -59.34748638 110.9854466 -62.5625 105.375 C-66.99839978 97.59484503 -71.32037516 89.76244404 -75.5625 81.875 C-79.67431542 74.23401008 -83.86593764 66.64942241 -88.1875 59.125 C-88.67444336 58.27405762 -89.16138672 57.42311523 -89.66308594 56.54638672 C-92.09098537 52.30775369 -94.53783466 48.08143634 -97.0078125 43.8671875 C-97.94318553 42.24506674 -98.87810216 40.6226827 -99.8125 39 C-100.47125122 37.89615967 -100.47125122 37.89615967 -101.14331055 36.77001953 C-101.53558838 36.08278809 -101.92786621 35.39555664 -102.33203125 34.6875 C-102.67983643 34.09324219 -103.0276416 33.49898437 -103.38598633 32.88671875 C-104.2148735 30.33974458 -103.67828913 28.54762655 -103 26 C-98.79285562 25.73778186 -94.58781109 25.57852396 -90.375 25.4375 C-89.18519531 25.36208984 -87.99539062 25.28667969 -86.76953125 25.20898438 C-78.14417631 24.99214584 -78.14417631 24.99214584 -74.95703125 27.79956055 C-73.37805831 30.13166203 -72.16548464 32.43868037 -71 35 C-70.34471542 36.17923314 -69.68388094 37.35541258 -69.015625 38.52734375 C-68.14164063 40.21537109 -68.14164063 40.21537109 -67.25 41.9375 C-66.56780934 43.24031899 -65.88414794 44.54236865 -65.19921875 45.84375 C-64.8439209 46.51921875 -64.48862305 47.1946875 -64.12255859 47.890625 C-60.92874622 53.89204711 -57.58024694 59.8108944 -54.26123047 65.74365234 C-53.00554927 67.99007233 -51.7544835 70.23901676 -50.50390625 72.48828125 C-49.7111567 73.9089765 -48.91819697 75.3295545 -48.125 76.75 C-47.76801025 77.39316162 -47.41102051 78.03632324 -47.04321289 78.69897461 C-44.85844911 82.5981675 -42.52088503 86.31476 -40 90 C-33.4971699 82.16770241 -28.56047129 73.18301536 -23.7734375 64.23046875 C-20.9047252 59.00486286 -17.88225036 53.86795035 -14.86987305 48.72412109 C-13.9694282 47.18036497 -13.07622566 45.63235463 -12.19140625 44.07958984 C-11.16205056 42.28285793 -10.09423712 40.50826035 -9.01953125 38.73828125 C-7.69221967 36.04197517 -7.69221967 36.04197517 -8.8359375 33.4375 C-9.34382813 32.633125 -9.85171875 31.82875 -10.375 31 C-12.14914406 28.1613695 -13.00595635 26.60329269 -12.97265625 23.23046875 C-11.6464331 18.82570352 -9.46291545 15.21443759 -7.0625 11.3125 C-6.60681641 10.55388672 -6.15113281 9.79527344 -5.68164062 9.01367188 C-3.84384894 5.96503648 -1.97498281 2.96247421 0 0 Z " fill="#DDB072" transform="translate(265,197)"/>
<path d="M0 0 C1.0263858 -0.00571014 2.05277161 -0.01142029 3.11026001 -0.01730347 C4.24071747 -0.01842133 5.37117493 -0.01953918 6.53588867 -0.02069092 C8.31641129 -0.02813828 8.31641129 -0.02813828 10.13290405 -0.03573608 C13.39315232 -0.04785558 16.6533647 -0.05530529 19.91363144 -0.05974674 C21.94890369 -0.06267598 23.98417029 -0.06678042 26.0194397 -0.07125092 C32.38288567 -0.08492465 38.74631875 -0.0945928 45.1097784 -0.09845281 C52.46424503 -0.10293815 59.81852622 -0.12050843 67.17293644 -0.1494534 C72.85279506 -0.17103495 78.53260136 -0.18115513 84.21250057 -0.18249393 C87.60744792 -0.18354419 91.00222093 -0.18949894 94.39712524 -0.20731354 C98.18050403 -0.22426974 101.96342537 -0.22251949 105.74682617 -0.21600342 C106.87728363 -0.2252182 108.00774109 -0.23443298 109.17245483 -0.243927 C110.19884064 -0.23835785 111.22522644 -0.2327887 112.28271484 -0.22705078 C113.17794357 -0.22851734 114.0731723 -0.2299839 114.99552917 -0.2314949 C115.7036525 -0.10875576 116.41177582 0.01398338 117.14135742 0.14044189 C118.13135742 1.62544189 118.13135742 1.62544189 119.14135742 3.14044189 C117.82135742 5.45044189 116.50135742 7.76044189 115.14135742 10.14044189 C113.89589337 7.64951379 114.36459962 6.72963456 115.14135742 4.14044189 C112.77808599 2.95880618 111.40588584 3.02839079 108.77192688 3.05142212 C107.85373672 3.05701645 106.93554657 3.06261078 105.98953247 3.06837463 C104.9791391 3.0797496 103.96874573 3.09112457 102.92773438 3.10284424 C101.86579361 3.11084549 100.80385284 3.11884674 99.70973206 3.12709045 C96.1829704 3.15507281 92.65632843 3.19052167 89.12963867 3.22637939 C86.68304209 3.2481433 84.23644269 3.26959307 81.7898407 3.29074097 C76.65250029 3.33631007 71.5152111 3.3855326 66.37792969 3.43731689 C59.79843794 3.50337258 53.21890529 3.56072223 46.63930988 3.61534691 C41.5820527 3.65825222 36.52484547 3.70566524 31.46764183 3.75444412 C29.04240341 3.77732145 26.6171517 3.79883322 24.19188881 3.81895065 C20.79518094 3.84783228 17.39858654 3.88274988 14.00195312 3.91925049 C13.00168091 3.926577 12.00140869 3.9339035 10.9708252 3.94145203 C5.94795166 4.00197707 1.06323542 4.07976555 -3.85864258 5.14044189 C-5.63060132 7.42688002 -5.63060132 7.42688002 -6.85864258 10.14044189 C-8.19197591 11.47377523 -9.52530924 12.80710856 -10.85864258 14.14044189 C-10.85864258 14.80044189 -10.85864258 15.46044189 -10.85864258 16.14044189 C-11.51864258 16.47044189 -12.17864258 16.80044189 -12.85864258 17.14044189 C-13.27114258 18.21294189 -13.68364258 19.28544189 -14.10864258 20.39044189 C-15.78288891 24.59774485 -18.24800591 26.49264167 -21.85864258 29.14044189 C-22.51864258 28.81044189 -23.17864258 28.48044189 -23.85864258 28.14044189 C-23.55684082 27.67782959 -23.25503906 27.21521729 -22.9440918 26.73858643 C-21.53874497 24.58207823 -20.13578187 22.42403702 -18.73364258 20.26544189 C-18.23098877 19.49200439 -17.72833496 18.71856689 -17.21044922 17.92169189 C-14.00094523 12.9631041 -10.90256735 7.96241063 -7.97973633 2.82794189 C-5.88201771 -0.32959972 -3.52873637 0.01172527 0 0 Z " fill="#DFBF8E" transform="translate(254.858642578125,86.85955810546875)"/>
<path d="M0 0 C0.68461807 -0.00978378 1.36923615 -0.01956757 2.07460022 -0.02964783 C4.35016926 -0.05966756 6.62567913 -0.08100765 8.90136719 -0.09985352 C9.67752129 -0.10642534 10.45367538 -0.11299717 11.2533493 -0.11976814 C15.36337969 -0.15239406 19.47338383 -0.17683426 23.58349609 -0.19628906 C26.98654952 -0.21409333 30.38877287 -0.24889253 33.79150391 -0.29882812 C37.89707621 -0.359014 42.00187954 -0.38976275 46.10787201 -0.39946175 C47.67242113 -0.4080228 49.23694937 -0.4268574 50.80124664 -0.45620537 C52.99470882 -0.49513368 55.1851805 -0.49615517 57.37890625 -0.48828125 C58.62609436 -0.49858871 59.87328247 -0.50889618 61.15826416 -0.51951599 C66.61420561 0.68818913 68.26629139 4.41543557 71.26074219 8.95874023 C72.44824219 11.20874023 72.44824219 11.20874023 72.44824219 13.20874023 C70.76074219 12.64624023 70.76074219 12.64624023 68.44824219 11.20874023 C67.89241455 10.04270264 67.33658691 8.87666504 66.76391602 7.67529297 C64.7919571 4.87589151 63.77013734 4.27765826 60.37069702 3.54983521 C56.26113773 3.29926093 52.19968612 3.26424045 48.08496094 3.30639648 C46.56750856 3.29700831 45.05007235 3.28454859 43.53266907 3.26914978 C39.54897834 3.23694585 35.56643965 3.24635721 31.58270264 3.26452637 C27.51366607 3.27569082 23.4449235 3.24737474 19.37597656 3.22241211 C11.39982502 3.17928223 3.42445753 3.18012734 -4.55175781 3.20874023 C-4.88175781 4.52874023 -5.21175781 5.84874023 -5.55175781 7.20874023 C-6.21175781 5.22874023 -6.87175781 3.24874023 -7.55175781 1.20874023 C-5.67835079 -0.66466679 -2.49954052 0.03190037 0 0 Z " fill="#DFBE8F" transform="translate(91.5517578125,86.791259765625)"/>
<path d="M0 0 C2.81170098 0.32935326 3.79118055 0.74291328 5.60546875 2.9765625 C6.12753906 3.85054687 6.64960938 4.72453125 7.1875 5.625 C8.0846875 7.10419922 8.0846875 7.10419922 9 8.61328125 C9.99 10.28970703 9.99 10.28970703 11 12 C12.16690543 13.94903385 13.33695383 15.89616015 14.50708008 17.84326172 C15.27571775 19.1255433 16.04133997 20.40963881 16.8034668 21.69580078 C18.5298345 24.60226161 20.28493911 27.41303563 22.20703125 30.19921875 C23.82810274 32.73148075 24.62413442 34.08917927 25 37 C24.27490234 38.97949219 24.27490234 38.97949219 23.0859375 41.046875 C22.65410156 41.81 22.22226562 42.573125 21.77734375 43.359375 C21.31457031 44.14828125 20.85179687 44.9371875 20.375 45.75 C19.93542969 46.5234375 19.49585938 47.296875 19.04296875 48.09375 C16.15456712 53.14210007 13.11766987 58.09046914 10 63 C8.86416544 59.28272326 9.33329974 57.52948291 11 54 C11.99 54 12.98 54 14 54 C13.67 53.01 13.34 52.02 13 51 C13.99 50.505 13.99 50.505 15 50 C15.75162258 48.26800015 16.49983447 46.5341824 17.2109375 44.78515625 C18.56102333 41.73075415 19.99616234 39.50191883 23 38 C23 36.68 23 35.36 23 34 C22.39671875 33.92265625 21.7934375 33.8453125 21.171875 33.765625 C18.25218511 32.7363818 17.69556927 31.44482667 16.25 28.75 C15.82203125 27.98171875 15.3940625 27.2134375 14.953125 26.421875 C13.90993102 23.77113619 13.81983678 21.8225571 14 19 C13.071875 18.9071875 13.071875 18.9071875 12.125 18.8125 C10 18 10 18 8.875 15.5625 C8.58625 14.716875 8.2975 13.87125 8 13 C7.34 12.34 6.68 11.68 6 11 C6 9.68 6 8.36 6 7 C4.35 6.67 2.7 6.34 1 6 C0.52949219 6.71027344 0.05898438 7.42054688 -0.42578125 8.15234375 C-1.04839844 9.07144531 -1.67101562 9.99054688 -2.3125 10.9375 C-3.23482422 12.31228516 -3.23482422 12.31228516 -4.17578125 13.71484375 C-6 16 -6 16 -9 17 C-7.51481201 12.95698825 -5.57122002 9.38853744 -3.375 5.6875 C-2.74335938 4.61886719 -2.11171875 3.55023438 -1.4609375 2.44921875 C-0.97882813 1.64097656 -0.49671875 0.83273438 0 0 Z " fill="#E5C59B" transform="translate(265,197)"/>
<path d="M0 0 C1.30112228 0.00007553 2.60224457 0.00015106 3.9427948 0.00022888 C5.36331216 0.00533554 6.78382912 0.01055154 8.2043457 0.01586914 C9.65737357 0.01773448 11.11040207 0.01915783 12.56343079 0.02015686 C16.38568868 0.02397293 20.2079085 0.03379546 24.03015137 0.04486084 C27.93130987 0.05509452 31.83247452 0.05965868 35.73364258 0.06469727 C43.38665471 0.07541854 51.0396355 0.09248404 58.69262695 0.11352539 C58.69262695 1.10352539 58.69262695 2.09352539 58.69262695 3.11352539 C59.18762695 4.59852539 59.18762695 4.59852539 59.69262695 6.11352539 C59.36262695 6.77352539 59.03262695 7.43352539 58.69262695 8.11352539 C56.63012695 8.73852539 56.63012695 8.73852539 54.69262695 9.11352539 C55.35262695 7.13352539 56.01262695 5.15352539 56.69262695 3.11352539 C48.54715673 3.12839936 40.40244666 3.16998675 32.25733566 3.24561596 C28.47510612 3.27989677 24.69328093 3.30499748 20.91088867 3.30908203 C17.26006091 3.31336289 13.61014542 3.34180553 9.95960236 3.38695717 C8.56741908 3.39993938 7.17512666 3.40423721 5.78289032 3.39967918 C3.83182591 3.3947796 1.88076553 3.42371278 -0.07006836 3.45410156 C-1.18037415 3.4607634 -2.29067993 3.46742523 -3.43463135 3.47428894 C-7.19998783 4.31214816 -8.24031904 5.95705847 -10.30737305 9.11352539 C-11.30737305 6.11352539 -11.30737305 6.11352539 -10.55737305 3.48852539 C-8.28953355 -0.82036965 -4.39546652 -0.00850187 0 0 Z " fill="#E0BA82" transform="translate(270.307373046875,110.886474609375)"/>
<path d="M0 0 C0.66 0.33 1.32 0.66 2 1 C-0.20571914 4.95979533 -2.41505865 8.91755975 -4.625 12.875 C-5.24246094 13.98359375 -5.85992187 15.0921875 -6.49609375 16.234375 C-10.21784096 22.89434368 -14.02600418 29.48721594 -18 36 C-20.28027344 35.85498047 -20.28027344 35.85498047 -23 35 C-24.83691406 32.54736328 -24.83691406 32.54736328 -26.515625 29.3203125 C-27.12664062 28.16402344 -27.73765625 27.00773437 -28.3671875 25.81640625 C-28.99497636 24.58603172 -29.62257853 23.35556192 -30.25 22.125 C-30.89168183 20.90153096 -31.53489507 19.6788638 -32.1796875 18.45703125 C-36.78210616 9.65368151 -36.78210616 9.65368151 -38 6 C-36.1875 6.1875 -36.1875 6.1875 -34 7 C-31.59610056 10.20519925 -30.56375395 13.05372236 -30 17 C-29.01 17.33 -28.02 17.66 -27 18 C-25.49138835 21.07524682 -24.20130275 23.93597116 -23.5625 27.3125 C-23.12642602 29.22766928 -23.12642602 29.22766928 -20.9375 30.25 C-20.298125 30.4975 -19.65875 30.745 -19 31 C-18.7525 30.030625 -18.505 29.06125 -18.25 28.0625 C-17.8375 27.051875 -17.425 26.04125 -17 25 C-14.875 24.125 -14.875 24.125 -13 24 C-12.896875 23.0925 -12.79375 22.185 -12.6875 21.25 C-11.99350187 17.96928156 -11.29914332 16.39110905 -9 14 C-8.34 14 -7.68 14 -7 14 C-7 12.68 -7 11.36 -7 10 C-6.34 9.34 -5.68 8.68 -5 8 C-3.96838392 6.01612292 -2.96476382 4.01723344 -2 2 C-1.34 2 -0.68 2 0 2 C0 1.34 0 0.68 0 0 Z " fill="#E3C39B" transform="translate(246,305)"/>
<path d="M0 0 C0.99 0.66 1.98 1.32 3 2 C2.67 2.99 2.34 3.98 2 5 C1.34 5 0.68 5 0 5 C0.62380692 6.41719242 1.2491003 7.8337306 1.875 9.25 C2.22304688 10.03890625 2.57109375 10.8278125 2.9296875 11.640625 C3.61578789 13.15305067 4.34705681 14.64624372 5.1328125 16.109375 C6 18 6 18 6 21 C5.34 21 4.68 21 4 21 C3.87625 21.53625 3.7525 22.0725 3.625 22.625 C3 25 3 25 1.875 28.0625 C0.68799831 31.02048666 0.68799831 31.02048666 2 34 C1.01 34 0.02 34 -1 34 C-1.20625 34.886875 -1.4125 35.77375 -1.625 36.6875 C-3.3202931 40.77161519 -5.57511137 42.27406823 -9 45 C-10.84475674 47.6526218 -10.84475674 47.6526218 -12 50 C-12.66 49.67 -13.32 49.34 -14 49 C-12.73649339 45.67219331 -11.31075117 42.63159563 -9.50390625 39.56640625 C-9.02759766 38.75236328 -8.55128906 37.93832031 -8.06054688 37.09960938 C-7.56619141 36.26236328 -7.07183594 35.42511719 -6.5625 34.5625 C-5.11673131 32.1060231 -3.67568722 29.64784041 -2.25585938 27.17626953 C-1.19686446 25.34114499 -0.10411535 23.5255597 0.99609375 21.71484375 C2.30542286 19.03728316 2.30542286 19.03728316 1.1640625 16.4375 C0.65617188 15.633125 0.14828125 14.82875 -0.375 14 C-3.0060768 9.33422381 -3.0060768 9.33422381 -2.9375 5.5625 C-2 3 -2 3 0 0 Z " fill="#E3C497" transform="translate(255,214)"/>
<path d="M0 0 C0.66 0 1.32 0 2 0 C2.3125 2.6875 2.3125 2.6875 2 6 C-0.25 8.4375 -0.25 8.4375 -3 11 C-4.4957392 13.26452823 -5.71491383 15.60117247 -7 18 C-7.7734375 19.2375 -7.7734375 19.2375 -8.5625 20.5 C-10.33221159 23.57775929 -11.64842522 26.71760411 -13 30 C-13.66 30 -14.32 30 -15 30 C-15.07476562 30.64066406 -15.14953125 31.28132813 -15.2265625 31.94140625 C-16.18864726 38.27041484 -17.825416 42.95194027 -23 47 C-25.1953125 47.68359375 -25.1953125 47.68359375 -27 48 C-23.67587443 38.63200976 -17.75036581 30.11763669 -12.70703125 21.59765625 C-10.84748768 18.45193402 -9.0150215 15.29225677 -7.19921875 12.12109375 C-6.74699951 11.33669922 -6.29478027 10.55230469 -5.82885742 9.74414062 C-4.95464788 8.22668118 -4.08614806 6.70591555 -3.22387695 5.18164062 C-2.20486011 3.42104653 -1.10960588 1.70495211 0 0 Z " fill="#E1C399" transform="translate(315,135)"/>
<path d="M0 0 C4.20714438 -0.26221814 8.41218891 -0.42147604 12.625 -0.5625 C13.81480469 -0.63791016 15.00460938 -0.71332031 16.23046875 -0.79101562 C24.86641427 -1.0081204 24.86641427 -1.0081204 28.13964844 1.90283203 C30.568343 5.44425486 32.11084854 8.79788705 33 13 C31.55650326 12.26160754 30.12040949 11.50873357 28.6875 10.75 C27.88699219 10.33234375 27.08648437 9.9146875 26.26171875 9.484375 C23.8571305 7.90623418 22.64144371 6.32979107 21 4 C18.23547967 2.61773984 15.9538637 2.90474613 12.875 2.9375 C11.77929688 2.94652344 10.68359375 2.95554688 9.5546875 2.96484375 C8.71164063 2.97644531 7.86859375 2.98804688 7 3 C6.525625 4.11375 6.05125 5.2275 5.5625 6.375 C4.74693537 8.26710994 3.92143645 10.15712709 3 12 C-1.11111779 5.64645433 -1.11111779 5.64645433 -0.54858398 2.3737793 C-0.36755127 1.59043213 -0.18651855 0.80708496 0 0 Z " fill="#E9C699" transform="translate(162,223)"/>
<path d="M0 0 C-0.50840885 4.82630375 -1.86958544 7.8601092 -4.5625 11.875 C-5.52349609 13.32519531 -5.52349609 13.32519531 -6.50390625 14.8046875 C-6.99761719 15.52914062 -7.49132812 16.25359375 -8 17 C-8.66 16.01 -9.32 15.02 -10 14 C-8.95833333 12.30729167 -7.91666667 10.61458333 -6.875 8.921875 C-5.72375977 6.74520615 -5.72375977 6.74520615 -6 3 C-9.60401481 2.91298961 -13.20776012 2.85960612 -16.8125 2.8125 C-17.83666016 2.78736328 -18.86082031 2.76222656 -19.91601562 2.73632812 C-20.89892578 2.72666016 -21.88183594 2.71699219 -22.89453125 2.70703125 C-23.80050049 2.6913208 -24.70646973 2.67561035 -25.63989258 2.65942383 C-28.45910745 3.06625167 -29.16240212 3.915053 -31 6 C-31.66 6 -32.32 6 -33 6 C-31.63016497 2.83884224 -31.0109362 2.0072908 -28 0 C-20.34927018 -1.30592168 -7.01696898 -3.50848449 0 0 Z " fill="#DEBB8D" transform="translate(299,132)"/>
<path d="M0 0 C1.0263858 -0.00571014 2.05277161 -0.01142029 3.11026001 -0.01730347 C4.24071747 -0.01842133 5.37117493 -0.01953918 6.53588867 -0.02069092 C8.31641129 -0.02813828 8.31641129 -0.02813828 10.13290405 -0.03573608 C13.39315232 -0.04785558 16.6533647 -0.05530529 19.91363144 -0.05974674 C21.94890369 -0.06267598 23.98417029 -0.06678042 26.0194397 -0.07125092 C32.38288567 -0.08492465 38.74631875 -0.0945928 45.1097784 -0.09845281 C52.46424503 -0.10293815 59.81852622 -0.12050843 67.17293644 -0.1494534 C72.85279506 -0.17103495 78.53260136 -0.18115513 84.21250057 -0.18249393 C87.60744792 -0.18354419 91.00222093 -0.18949894 94.39712524 -0.20731354 C98.18050403 -0.22426974 101.96342537 -0.22251949 105.74682617 -0.21600342 C106.87728363 -0.2252182 108.00774109 -0.23443298 109.17245483 -0.243927 C110.19884064 -0.23835785 111.22522644 -0.2327887 112.28271484 -0.22705078 C113.17794357 -0.22851734 114.0731723 -0.2299839 114.99552917 -0.2314949 C115.7036525 -0.10875576 116.41177582 0.01398338 117.14135742 0.14044189 C118.13135742 1.62544189 118.13135742 1.62544189 119.14135742 3.14044189 C118.48135742 3.80044189 117.82135742 4.46044189 117.14135742 5.14044189 C116.15135742 3.65544189 116.15135742 3.65544189 115.14135742 2.14044189 C113.06557168 1.69155749 113.06557168 1.69155749 110.62680054 1.77294922 C109.20119812 1.76459549 109.20119812 1.76459549 107.74679565 1.756073 C106.70057037 1.76528778 105.65434509 1.77450256 104.57641602 1.78399658 C103.47706726 1.78195221 102.37771851 1.77990784 101.24505615 1.77780151 C97.59313582 1.77478185 93.94166199 1.79331312 90.28979492 1.81231689 C87.75591138 1.81537382 85.22202615 1.81725045 82.68814087 1.81799316 C77.36664997 1.82260442 72.04531261 1.83666701 66.72387695 1.85919189 C59.91125031 1.88797158 53.09872782 1.89840706 46.28604698 1.90287399 C41.04776996 1.90643981 35.80951142 1.9168667 30.5712471 1.92874908 C28.06030086 1.93443825 25.54935234 1.93920139 23.03840256 1.94301605 C19.51978305 1.94991635 16.00125574 1.96356888 12.48266602 1.97930908 C11.44858612 1.98042694 10.41450623 1.9815448 9.34909058 1.98269653 C3.85550314 2.01512547 -1.42334622 2.33133394 -6.85864258 3.14044189 C-6.85864258 2.48044189 -6.85864258 1.82044189 -6.85864258 1.14044189 C-4.39074715 -0.09350582 -2.76084011 0.00917371 0 0 Z " fill="#E1CAAC" transform="translate(254.858642578125,86.85955810546875)"/>
<path d="M0 0 C-1.43073003 3.83971074 -3.21062533 7.28165748 -5.265625 10.82421875 C-6.23048828 12.49194336 -6.23048828 12.49194336 -7.21484375 14.19335938 C-7.89321718 15.3580799 -8.57160266 16.52279341 -9.25 17.6875 C-9.90613281 18.82123047 -10.56226563 19.95496094 -11.23828125 21.12304688 C-13.15022883 24.42049126 -15.07249197 27.71163093 -17 31 C-17.58974609 32.0101416 -18.17949219 33.0202832 -18.78710938 34.06103516 C-19.32658203 34.97546387 -19.86605469 35.88989258 -20.421875 36.83203125 C-20.8972168 37.64003174 -21.37255859 38.44803223 -21.86230469 39.28051758 C-22.23774414 39.84794678 -22.61318359 40.41537598 -23 41 C-23.33 41 -23.66 41 -24 41 C-23.55036936 36.32384131 -22.98662391 33.60883722 -20 30 C-19.29485154 27.85266073 -19.29485154 27.85266073 -19 26 C-18.01 26 -17.02 26 -16 26 C-16 24.35 -16 22.7 -16 21 C-15.34 20.67 -14.68 20.34 -14 20 C-14 19.01 -14 18.02 -14 17 C-13.34 17 -12.68 17 -12 17 C-10.34752407 13.05948048 -9.00095459 9.04957504 -7.68359375 4.98828125 C-7 3 -7 3 -6 1 C-3 0 -3 0 0 0 Z " fill="#E1BD91" transform="translate(322,178)"/>
<path d="M0 0 C1.98 0 3.96 0 6 0 C6 0.66 6 1.32 6 2 C6.99 2.33 7.98 2.66 9 3 C9.99 4.485 9.99 4.485 11 6 C14.20322578 5.2983557 14.20322578 5.2983557 15.5 2.4375 C15.995 1.633125 16.49 0.82875 17 0 C17.99 0 18.98 0 20 0 C18.62712658 3.69876091 16.93644547 6.9514476 14.875 10.3125 C14.33617187 11.19550781 13.79734375 12.07851562 13.2421875 12.98828125 C12.83226562 13.65214844 12.42234375 14.31601563 12 15 C10.265625 14.90625 10.265625 14.90625 8 14 C6.41134776 11.84314367 5.07280074 9.80755239 3.75 7.5 C3.38648438 6.89285156 3.02296875 6.28570312 2.6484375 5.66015625 C0 1.1896734 0 1.1896734 0 0 Z " fill="#DEB279" transform="translate(215,240)"/>
<path d="M0 0 C2.21161309 2.03708382 3.58544734 3.83957243 4.82421875 6.57421875 C5.28344727 7.57485352 5.28344727 7.57485352 5.75195312 8.59570312 C6.21504883 9.63114258 6.21504883 9.63114258 6.6875 10.6875 C7.00783203 11.38939453 7.32816406 12.09128906 7.65820312 12.81445312 C8.44479147 14.54025143 9.22320597 16.2697711 10 18 C4.39573608 20.56532762 -0.51234311 20.1819128 -6.5625 19.9375 C-7.60341797 19.92267578 -8.64433594 19.90785156 -9.71679688 19.89257812 C-17.3263573 19.60385525 -17.3263573 19.60385525 -20.71484375 16.56640625 C-22 14 -22 14 -22 12 C-21.34 12 -20.68 12 -20 12 C-19.67 13.32 -19.34 14.64 -19 16 C-16.14839609 16.81434143 -13.63373869 17.11881242 -10.671875 17.09765625 C-9.87265625 17.09443359 -9.0734375 17.09121094 -8.25 17.08789062 C-7.425 17.07951172 -6.6 17.07113281 -5.75 17.0625 C-4.90953125 17.05798828 -4.0690625 17.05347656 -3.203125 17.04882812 C-1.13538599 17.03707961 0.93231624 17.01914522 3 17 C3.0309375 15.72511719 3.061875 14.45023438 3.09375 13.13671875 C3.11115234 12.41959717 3.12855469 11.70247559 3.14648438 10.96362305 C2.94680722 8.28695081 1.67895526 7.02873761 0 5 C-0.1875 2.25 -0.1875 2.25 0 0 Z " fill="#CDB189" transform="translate(175,200)"/>
<path d="M0 0 C3.25157553 3.82023672 5.7351054 7.86177546 8.125 12.25 C11.86424014 19.0211849 15.73673933 25.69954654 19.72509766 32.32714844 C21.79908803 35.80810037 23.63669074 39.16336466 25 43 C23.1875 42.875 23.1875 42.875 21 42 C19.14403184 38.88197349 17.86688939 35.67276975 16.5 32.3125 C15.14828458 29.32746178 14.26256872 28.16419617 12 26 C10.81642114 23.36982476 9.91215621 20.73646863 9 18 C8.01 17.34 7.02 16.68 6 16 C6 14.68 6 13.36 6 12 C5.34 12 4.68 12 4 12 C3 11 2 10 1 9 C0.34 9 -0.32 9 -1 9 C-0.67 6.03 -0.34 3.06 0 0 Z " fill="#E5C6A5" transform="translate(179,125)"/>
<path d="M0 0 C0.66 0.33 1.32 0.66 2 1 C0.61188975 5.79263328 -1.49957237 9.79609441 -4.125 14 C-4.92969061 15.31300307 -5.73304291 16.62682714 -6.53515625 17.94140625 C-7.14641357 18.94131592 -7.14641357 18.94131592 -7.77001953 19.96142578 C-9.75704841 23.25473486 -11.66295106 26.59318717 -13.5625 29.9375 C-13.90877441 30.54658203 -14.25504883 31.15566406 -14.61181641 31.78320312 C-15.40926392 33.18801604 -16.20485967 34.59387991 -17 36 C-17.99 34.68 -18.98 33.36 -20 32 C-19.34 32 -18.68 32 -18 32 C-17.89171875 31.43796875 -17.7834375 30.8759375 -17.671875 30.296875 C-16.89058117 27.62594029 -15.71218578 25.6166306 -14.25 23.25 C-13.70859375 22.36828125 -13.1671875 21.4865625 -12.609375 20.578125 C-12.07828125 19.72734375 -11.5471875 18.8765625 -11 18 C-10.57203125 17.31421875 -10.1440625 16.6284375 -9.703125 15.921875 C-8.90375028 14.64495174 -8.10297761 13.36890252 -7.30078125 12.09375 C-4.81571008 8.09375556 -2.41176642 4.04447428 0 0 Z " fill="#E3C093" transform="translate(340,142)"/>
<path d="M0 0 C1.8125 0.1875 1.8125 0.1875 4 1 C6.40389944 4.20519925 7.43624605 7.05372236 8 11 C8.99 11.33 9.98 11.66 11 12 C12.51734989 15.0930594 13.78867317 17.99619755 14.5 21.375 C14.665 21.91125 14.83 22.4475 15 23 C15.99 23.33 16.98 23.66 18 24 C18 24.66 18 25.32 18 26 C18.66 26.33 19.32 26.66 20 27 C19.34 27 18.68 27 18 27 C17.67 27.66 17.34 28.32 17 29 C12.36530334 23.87517772 9.06883434 18.25669599 5.6875 12.25 C5.13771484 11.29222656 4.58792969 10.33445312 4.02148438 9.34765625 C0 2.26384899 0 2.26384899 0 0 Z " fill="#E0BA8D" transform="translate(208,311)"/>
<path d="M0 0 C0.66 1.32 1.32 2.64 2 4 C1.401875 4.86625 0.80375 5.7325 0.1875 6.625 C-1.82044534 9.62619944 -3.44655098 12.73775706 -5 16 C-6.32 16 -7.64 16 -9 16 C-10.63716313 13.87885799 -11.93601608 11.93177178 -13.25 9.625 C-13.79527344 8.72007812 -13.79527344 8.72007812 -14.3515625 7.796875 C-17 3.31643562 -17 3.31643562 -17 1 C-15.1875 1.1875 -15.1875 1.1875 -13 2 C-11.25128272 4.39639035 -10.14479292 6.34843188 -9.5 9.25 C-9.335 9.8275 -9.17 10.405 -9 11 C-8.01 11.33 -7.02 11.66 -6 12 C-5.9175 10.88625 -5.835 9.7725 -5.75 8.625 C-5.37875 6.830625 -5.37875 6.830625 -5 5 C-3 3.75 -3 3.75 -1 3 C-0.67 2.01 -0.34 1.02 0 0 Z " fill="#E3BF94" transform="translate(239,169)"/>
<path d="M0 0 C4.43230164 5.34256608 7.80890303 11.15014745 11.3125 17.125 C11.97056641 18.22199219 12.62863281 19.31898438 13.30664062 20.44921875 C13.92345703 21.49980469 14.54027344 22.55039063 15.17578125 23.6328125 C15.74208252 24.59074707 16.30838379 25.54868164 16.8918457 26.53564453 C18 29 18 29 17 32 C12.46634258 28.93671796 10.77531855 26.14842378 9 21 C8.855625 19.906875 8.71125 18.81375 8.5625 17.6875 C8.376875 16.800625 8.19125 15.91375 8 15 C6.67532254 14.3162955 5.34136367 13.65035814 4 13 C2.875 10 2.875 10 2 7 C1.34 6.34 0.68 5.68 0 5 C-0.125 2.375 -0.125 2.375 0 0 Z " fill="#E2C295" transform="translate(204,168)"/>
<path d="M0 0 C3.5079418 4.5153009 6.22879868 9.42026476 9.0625 14.375 C9.60455078 15.30828125 10.14660156 16.2415625 10.70507812 17.203125 C13.28723617 21.70993237 15.63935394 25.94617178 17 31 C12.49919482 29.49973161 11.0653192 26.12312814 9 22 C8.1875 18.5 8.1875 18.5 8 16 C7.01 15.67 6.02 15.34 5 15 C4.30341637 13.34561387 3.63903117 11.67745682 3 10 C2.46375 9.54625 1.9275 9.0925 1.375 8.625 C-0.84706839 5.99891917 -0.18642407 3.29349183 0 0 Z " fill="#E2C299" transform="translate(195,236)"/>
<path d="M0 0 C1.25908676 0.00222061 2.51817352 0.00444122 3.81541443 0.00672913 C4.50806396 0.0065831 5.2007135 0.00643707 5.91435242 0.00628662 C8.21400537 0.00698577 10.51357828 0.01477823 12.81321716 0.02259827 C14.40362504 0.02446244 15.99403349 0.02588635 17.58444214 0.02688599 C21.77827021 0.03071123 25.97206386 0.04054156 30.1658783 0.05158997 C34.44220006 0.06180395 38.71852736 0.06638358 42.99485779 0.07142639 C51.39135799 0.08216383 59.78783017 0.09924032 68.18431091 0.12025452 C68.18431091 0.45025452 68.18431091 0.78025452 68.18431091 1.12025452 C45.41431091 1.12025452 22.64431091 1.12025452 -0.81568909 1.12025452 C-0.81568909 3.10025452 -0.81568909 5.08025452 -0.81568909 7.12025452 C-1.47568909 6.79025452 -2.13568909 6.46025452 -2.81568909 6.12025452 C-3.50318909 3.62025452 -3.50318909 3.62025452 -3.81568909 1.12025452 C-2.81568909 0.12025452 -2.81568909 0.12025452 0 0 Z " fill="#E2C8A7" transform="translate(87.81568908691406,86.87974548339844)"/>
<path d="M0 0 C2.81870488 1.40935244 3.36401933 3.28401596 4.8125 6.0625 C7.35670298 10.85085254 10.07289572 15.43716098 13 20 C14.32 19.01 15.64 18.02 17 17 C16.67 18.65 16.34 20.3 16 22 C15.01 22.33 14.02 22.66 13 23 C12.34 23.66 11.68 24.32 11 25 C9.86788566 23.129287 8.74461905 21.25321809 7.625 19.375 C6.99851563 18.33085937 6.37203125 17.28671875 5.7265625 16.2109375 C4.09467868 13.17607664 3.07427354 10.26018667 2 7 C1.34 6.34 0.68 5.68 0 5 C-0.125 2.375 -0.125 2.375 0 0 Z " fill="#E1C39B" transform="translate(212,267)"/>
<path d="M0 0 C0.99 0 1.98 0 3 0 C1.41412178 5.97905638 -1.72823333 10.84601066 -4.9375 16.0625 C-5.47568359 16.94744141 -6.01386719 17.83238281 -6.56835938 18.74414062 C-7.59641545 20.4339048 -8.62672092 22.12230325 -9.65966797 23.80908203 C-11.12083665 26.1975206 -12.56533093 28.59555463 -14 31 C-15.3238515 28.35229699 -14.72884003 27.45512597 -13.8125 24.6875 C-12.45920804 20.83868801 -10.92544864 17.92544864 -8 15 C-7.34 15 -6.68 15 -6 15 C-5.90203125 14.30132812 -5.8040625 13.60265625 -5.703125 12.8828125 C-5.55359375 11.97273438 -5.4040625 11.06265625 -5.25 10.125 C-5.11078125 9.22007812 -4.9715625 8.31515625 -4.828125 7.3828125 C-4 5 -4 5 -1.921875 3.6796875 C-1.28765625 3.45539063 -0.6534375 3.23109375 0 3 C0 2.01 0 1.02 0 0 Z " fill="#E5C297" transform="translate(271,260)"/>
<path d="M0 0 C0.33 0.66 0.66 1.32 1 2 C0.22265625 4.1640625 0.22265625 4.1640625 -0.9375 6.625 C-1.31777344 7.44226563 -1.69804687 8.25953125 -2.08984375 9.1015625 C-2.39019531 9.72804687 -2.69054687 10.35453125 -3 11 C-3.66 11 -4.32 11 -5 11 C-5.15855469 11.556875 -5.31710938 12.11375 -5.48046875 12.6875 C-7.16155167 18.18584857 -9.05583681 23.68786823 -13 28 C-15.8125 28.5 -15.8125 28.5 -18 28 C-18.33 25.69 -18.66 23.38 -19 21 C-18.34 21.33 -17.68 21.66 -17 22 C-17 22.66 -17 23.32 -17 24 C-13.41358285 22.80452762 -13.18720423 22.0859026 -11.40625 18.88671875 C-10.69662109 17.6327832 -10.69662109 17.6327832 -9.97265625 16.35351562 C-9.48667969 15.47373047 -9.00070313 14.59394531 -8.5 13.6875 C-7.53354409 11.96095343 -6.56486617 10.23564841 -5.59375 8.51171875 C-4.95469727 7.35869263 -4.95469727 7.35869263 -4.30273438 6.18237305 C-2.99888924 3.99813923 -1.56191751 2.0056959 0 0 Z " fill="#E0C097" transform="translate(241,178)"/>
<path d="M0 0 C0.66 0.33 1.32 0.66 2 1 C1.33871094 2.02480469 0.67742187 3.04960937 -0.00390625 4.10546875 C-0.85754406 5.46566087 -1.71036625 6.82636511 -2.5625 8.1875 C-3.00013672 8.86103516 -3.43777344 9.53457031 -3.88867188 10.22851562 C-6.41202369 14.21176104 -6.41202369 14.21176104 -6.8828125 18.796875 C-5.97413597 21.19450544 -5.97413597 21.19450544 -4.3125 24.0625 C-3.879375 25.031875 -3.44625 26.00125 -3 27 C-3.91796875 29.18359375 -3.91796875 29.18359375 -5 31 C-5.6509259 29.75264433 -6.29551669 28.50198168 -6.9375 27.25 C-7.29714844 26.55390625 -7.65679687 25.8578125 -8.02734375 25.140625 C-10.34478716 20.0403881 -10.33864292 15.41451092 -9 10 C-6.9375 7.625 -6.9375 7.625 -5 6 C-5 5.01 -5 4.02 -5 3 C-2.625 1.25 -2.625 1.25 0 0 Z " fill="#E6BF94" transform="translate(250,133)"/>
<path d="M0 0 C20.79 0.33 41.58 0.66 63 1 C63.99 2.98 63.99 2.98 65 5 C64.67 5.66 64.34 6.32 64 7 C61.9375 7.625 61.9375 7.625 60 8 C60.66 6.02 61.32 4.04 62 2 C41.21 2 20.42 2 -1 2 C-0.67 1.34 -0.34 0.68 0 0 Z " fill="#E2BF98" transform="translate(265,112)"/>
<path d="M0 0 C1 2 1 2 0.22265625 4.8203125 C-0.16019531 5.91085938 -0.54304688 7.00140625 -0.9375 8.125 C-1.31777344 9.22070312 -1.69804687 10.31640625 -2.08984375 11.4453125 C-2.39019531 12.28835937 -2.69054687 13.13140625 -3 14 C-3.66 14 -4.32 14 -5 14 C-5.268125 14.556875 -5.53625 15.11375 -5.8125 15.6875 C-7.1013363 18.19733911 -8.54865343 20.58108906 -10 23 C-10.68096422 24.32608822 -11.35330586 25.65686601 -12 27 C-12.99 27 -13.98 27 -15 27 C-11.30898098 17.33056989 -5.6413798 8.62897443 0 0 Z " fill="#DEBB8A" transform="translate(257,151)"/>
<path d="M0 0 C1.10839844 3.75585938 1.10839844 3.75585938 0.1328125 5.953125 C-0.24101562 6.62859375 -0.61484375 7.3040625 -1 8 C-1.42151885 9.57158878 -1.7968834 11.15629082 -2.125 12.75 C-2.37636719 13.94882813 -2.37636719 13.94882813 -2.6328125 15.171875 C-2.75398438 15.77515625 -2.87515625 16.3784375 -3 17 C-4.65 17 -6.3 17 -8 17 C-7.41825155 22.3086849 -7.41825155 22.3086849 -5 27 C-5.66 27.33 -6.32 27.66 -7 28 C-10.3203125 23.1171875 -10.3203125 23.1171875 -11 21 C-9.88134066 15.81884095 -7.13461284 11.5748757 -4.375 7.125 C-3.95476562 6.43664062 -3.53453125 5.74828125 -3.1015625 5.0390625 C-2.07307528 3.35608342 -1.037279 1.67757468 0 0 Z " fill="#E8D1A4" transform="translate(287,183)"/>
<path d="M0 0 C4.063143 4.61456955 6.82936146 9.81766457 9.75 15.1875 C10.25660156 16.10208984 10.76320312 17.01667969 11.28515625 17.95898438 C15 24.74282977 15 24.74282977 15 27 C13.125 26.8125 13.125 26.8125 11 26 C9.21715186 22.70173093 9 20.8225249 9 17 C8.34 17 7.68 17 7 17 C6.67 15.68 6.34 14.36 6 13 C5.34 13 4.68 13 4 13 C1 7.25 1 7.25 1 5 C0.01 4.67 -0.98 4.34 -2 4 C-1.34 2.68 -0.68 1.36 0 0 Z " fill="#E4C39D" transform="translate(141,139)"/>
<path d="M0 0 C2.59905798 2.35634439 4.19969673 4.83817162 5.91796875 7.88671875 C6.44970703 8.82451172 6.98144531 9.76230469 7.52929688 10.72851562 C8.07650391 11.70498047 8.62371094 12.68144531 9.1875 13.6875 C9.74630859 14.67556641 10.30511719 15.66363281 10.88085938 16.68164062 C12.25830377 19.11865763 13.63115404 21.55814623 15 24 C14.34 24.66 13.68 25.32 13 26 C12.67 25.01 12.34 24.02 12 23 C11.34 23 10.68 23 10 23 C9.9175 22.38125 9.835 21.7625 9.75 21.125 C9.5025 20.42375 9.255 19.7225 9 19 C8.34773437 18.73058594 7.69546875 18.46117188 7.0234375 18.18359375 C5 17 5 17 4.2421875 14.65234375 C4.12101563 13.75644531 3.99984375 12.86054687 3.875 11.9375 C3.53894326 9.28770907 3.53894326 9.28770907 3 7 C2.34 6.67 1.68 6.34 1 6 C0.375 2.9375 0.375 2.9375 0 0 Z " fill="#DEBB8C" transform="translate(164,100)"/>
<path d="M0 0 C7.59 0.33 15.18 0.66 23 1 C23.33 1.66 23.66 2.32 24 3 C18.39 3 12.78 3 7 3 C6.01 5.31 5.02 7.62 4 10 C3.67 10.66 3.34 11.32 3 12 C-1.125 5.625 -1.125 5.625 0 0 Z " fill="#D2B183" transform="translate(162,223)"/>
<path d="M0 0 C0.99 0.33 1.98 0.66 3 1 C3.28875 1.825 3.5775 2.65 3.875 3.5 C4.24625 4.325 4.6175 5.15 5 6 C7.54775306 6.89386164 7.54775306 6.89386164 10 7 C10.625 8.875 10.625 8.875 11 11 C10.34 11.66 9.68 12.32 9 13 C9.474375 13.391875 9.94875 13.78375 10.4375 14.1875 C12.35179633 16.40808374 12.61266988 18.13375709 13 21 C12.34 21.33 11.68 21.66 11 22 C9.15984502 18.7121022 7.32904953 15.41908674 5.5 12.125 C4.97535156 11.18785156 4.45070312 10.25070312 3.91015625 9.28515625 C3.41386719 8.38925781 2.91757813 7.49335938 2.40625 6.5703125 C1.94541016 5.74289551 1.48457031 4.91547852 1.00976562 4.06298828 C0 2 0 2 0 0 Z " fill="#E1BA86" transform="translate(180,260)"/>
<path d="M0 0 C1.8125 0.125 1.8125 0.125 4 1 C6.28905989 4.67884625 7 6.61551956 7 11 C7.598125 11.20625 8.19625 11.4125 8.8125 11.625 C11.90627012 13.5696555 12.77755904 15.60433068 14 19 C13.0703125 21.1953125 13.0703125 21.1953125 12 23 C9.99304709 19.54565686 7.99563221 16.0858937 6 12.625 C5.42765625 11.64015625 4.8553125 10.6553125 4.265625 9.640625 C3.72421875 8.69960937 3.1828125 7.75859375 2.625 6.7890625 C2.12226562 5.91975098 1.61953125 5.05043945 1.1015625 4.15478516 C0 2 0 2 0 0 Z " fill="#E3C091" transform="translate(87,94)"/>
<path d="M0 0 C1.765625 0.0703125 1.765625 0.0703125 4 1 C5.44762313 3.30089692 6.61292696 5.43004895 7.75 7.875 C8.06582031 8.51308594 8.38164062 9.15117187 8.70703125 9.80859375 C10.1080189 12.71367203 11 14.73742804 11 18 C11.66 18 12.32 18 13 18 C12.67 19.32 12.34 20.64 12 22 C9.17978127 20.58989063 8.59529917 18.70669041 7.125 15.9375 C6.5990625 14.9475 6.073125 13.9575 5.53125 12.9375 C5.0259375 11.968125 4.520625 10.99875 4 10 C3.36578125 8.7934375 3.36578125 8.7934375 2.71875 7.5625 C0 2.28035714 0 2.28035714 0 0 Z " fill="#E4C49B" transform="translate(122,156)"/>
<path d="M0 0 C2.475 0.495 2.475 0.495 5 1 C4.67 2.32 4.34 3.64 4 5 C4.598125 5.268125 5.19625 5.53625 5.8125 5.8125 C8.07100952 7.03854802 9.47062652 7.93534581 11 10 C11.1875 12.6875 11.1875 12.6875 11 15 C11.66 15.33 12.32 15.66 13 16 C12.67 17.32 12.34 18.64 12 20 C9.76523324 17.91903659 8.22297814 15.90570392 6.73828125 13.2421875 C6.14370117 12.18064453 6.14370117 12.18064453 5.53710938 11.09765625 C5.13298828 10.36417969 4.72886719 9.63070312 4.3125 8.875 C3.68891602 7.76318359 3.68891602 7.76318359 3.05273438 6.62890625 C0 1.14501232 0 1.14501232 0 0 Z " fill="#E3C197" transform="translate(146,122)"/>
<path d="M0 0 C0.99 0.33 1.98 0.66 3 1 C3.33 1.99 3.66 2.98 4 4 C4.763125 4.7425 5.52625 5.485 6.3125 6.25 C9.40465025 9.41406072 11.11155189 12.00520592 13 16 C12.75 18.4375 12.75 18.4375 12 20 C9.86187451 17.98405311 8.25292367 16.01104183 6.73828125 13.49609375 C6.34189453 12.83802734 5.94550781 12.17996094 5.53710938 11.50195312 C5.13298828 10.82068359 4.72886719 10.13941406 4.3125 9.4375 C3.68891602 8.40979492 3.68891602 8.40979492 3.05273438 7.36132812 C0 2.2533867 0 2.2533867 0 0 Z " fill="#E5C294" transform="translate(178,176)"/>
<path d="M0 0 C3.60053343 4.11141993 5.89608242 8.43465967 8.25 13.3125 C8.61351562 14.05306641 8.97703125 14.79363281 9.3515625 15.55664062 C10.23990537 17.36839254 11.12072593 19.18382953 12 21 C5.6981205 18.09245225 3.43890718 13.31898678 1 7 C0.31163487 5.00736409 -0.36281399 3.00958663 -1 1 C-0.67 0.67 -0.34 0.34 0 0 Z " fill="#E5C39A" transform="translate(156,166)"/>
<path d="M0 0 C2.27113803 0.14100857 4.54190725 0.28796755 6.8125 0.4375 C8.07707031 0.51871094 9.34164062 0.59992188 10.64453125 0.68359375 C14 1 14 1 17 2 C18.6875 5.5625 18.6875 5.5625 20 9 C19.01 9.33 18.02 9.66 17 10 C16.5875 8.865625 16.175 7.73125 15.75 6.5625 C14.76504123 4.53810509 14.76504123 4.53810509 13 3 C8.99721141 2.06317714 5.10031203 1.95487078 1 2 C1.33 3.32 1.66 4.64 2 6 C0.68 6 -0.64 6 -2 6 C-2.33 5.01 -2.66 4.02 -3 3 C-2.34 3 -1.68 3 -1 3 C-0.67 2.01 -0.34 1.02 0 0 Z " fill="#E2BE96" transform="translate(128,112)"/>
<path d="M0 0 C3.82246363 0.54606623 5.58848176 2.02579418 8 5 C9.125 7.9375 9.125 7.9375 10 11 C10.65411685 12.67163195 11.31653318 14.34015202 12 16 C11.34 16.66 10.68 17.32 10 18 C8.32982236 15.18957076 6.66445191 12.37632343 5 9.5625 C4.28457031 8.35883789 4.28457031 8.35883789 3.5546875 7.13085938 C2.87792969 5.98520508 2.87792969 5.98520508 2.1875 4.81640625 C1.76855469 4.10943604 1.34960938 3.40246582 0.91796875 2.67407227 C0 1 0 1 0 0 Z " fill="#E8C59A" transform="translate(163,151)"/>
<path d="M0 0 C0.99 0.33 1.98 0.66 3 1 C3 1.66 3 2.32 3 3 C2.01 3 1.02 3 0 3 C-0.66 4.98 -1.32 6.96 -2 9 C-2.66 8.34 -3.32 7.68 -4 7 C-3.625 4.875 -3.625 4.875 -3 3 C-2.34 3 -1.68 3 -1 3 C-0.67 2.01 -0.34 1.02 0 0 Z M-3 10 C-6 13 -9 16 -12 19 C-12.33 18.01 -12.66 17.02 -13 16 C-8.59550562 8.13483146 -8.59550562 8.13483146 -3 10 Z " fill="#DCB077" transform="translate(254,245)"/>
<path d="M0 0 C1.75 0.125 1.75 0.125 4 1 C6.93355173 4.66693966 8 6.23130534 8 11 C9.98 11 11.96 11 14 11 C13.34 12.32 12.68 13.64 12 15 C10.265625 14.90625 10.265625 14.90625 8 14 C6.41134776 11.84314367 5.07280074 9.80755239 3.75 7.5 C3.38648438 6.89285156 3.02296875 6.28570312 2.6484375 5.66015625 C0 1.1896734 0 1.1896734 0 0 Z " fill="#E7C69A" transform="translate(215,240)"/>
<path d="M0 0 C0.33 0.66 0.66 1.32 1 2 C0.05719096 4.3570226 -0.94647157 6.69034152 -2 9 C-2.99843846 11.99531539 -3.00732761 13.17255732 -2.5625 16.1875 C-2.376875 17.445625 -2.19125 18.70375 -2 20 C-1.34 20 -0.68 20 0 20 C-0.33 21.32 -0.66 22.64 -1 24 C-7.12300877 14.27929117 -7.12300877 14.27929117 -6.6875 9.75 C-4.6056069 6.35728531 -2.40977152 3.17075199 0 0 Z " fill="#E7CAA5" transform="translate(217,138)"/>
<path d="M0 0 C1.3399578 3.04535865 0.92663206 4.21238087 -0.1875 7.4375 C-1.85396983 10.71297519 -3.70113146 13.16472881 -6 16 C-6.77833534 18.18214568 -6.77833534 18.18214568 -7 20 C-8.32 20.33 -9.64 20.66 -11 21 C-9.66959987 17.42892597 -8.07110473 14.29773358 -6.0625 11.0625 C-3.84839123 7.44088932 -1.81636876 3.83455628 0 0 Z " fill="#E2C296" transform="translate(240,263)"/>
<path d="M0 0 C0.66 0 1.32 0 2 0 C2 0.66 2 1.32 2 2 C2.99 2.33 3.98 2.66 5 3 C6.5 5.07421875 6.5 5.07421875 8 7.6875 C8.51820312 8.58597656 9.03640625 9.48445312 9.5703125 10.41015625 C11.13299563 13.24091832 12.61598835 16.07819762 14 19 C13.01 19.33 12.02 19.66 11 20 C9.72710095 17.79283537 8.4566395 15.58432515 7.1875 13.375 C6.83107422 12.75753906 6.47464844 12.14007813 6.10742188 11.50390625 C3.94086828 7.72734494 1.9095701 3.91552228 0 0 Z " fill="#E5C69B" transform="translate(110,136)"/>
<path d="M0 0 C3.33537489 1.11179163 4.63707344 2.47411298 7 5 C7 4.01 7 3.02 7 2 C7.66 2 8.32 2 9 2 C9 1.34 9 0.68 9 0 C9.99 0 10.98 0 12 0 C11.34938905 1.67299959 10.67966676 3.33859237 10 5 C9.566875 6.11375 9.566875 6.11375 9.125 7.25 C8 9 8 9 5.9296875 9.609375 C5.29289062 9.73828125 4.65609375 9.8671875 4 10 C3.32845067 8.71086513 2.66291141 7.41859796 2 6.125 C1.62875 5.40570313 1.2575 4.68640625 0.875 3.9453125 C0 2 0 2 0 0 Z " fill="#E4C1A2" transform="translate(286,219)"/>
<path d="M0 0 C0.99 0 1.98 0 3 0 C1.47146065 4.27186525 -0.71509481 7.99326863 -3.125 11.8125 C-3.49753906 12.40998047 -3.87007813 13.00746094 -4.25390625 13.62304688 C-5.1657048 15.08426251 -6.08235976 16.54244585 -7 18 C-7.66 17.01 -8.32 16.02 -9 15 C-8.484375 14.21625 -7.96875 13.4325 -7.4375 12.625 C-6.963125 11.75875 -6.48875 10.8925 -6 10 C-6.33 9.34 -6.66 8.68 -7 8 C-6.01 8 -5.02 8 -4 8 C-3.34 6.35 -2.68 4.7 -2 3 C-1.34 3 -0.68 3 0 3 C0 2.01 0 1.02 0 0 Z " fill="#E2BD94" transform="translate(263,189)"/>
<path d="M0 0 C2.77645418 3.49692647 5.02239005 7.26646134 7.25 11.125 C7.62640625 11.75792969 8.0028125 12.39085937 8.390625 13.04296875 C9.32444588 14.65998946 10.16995623 16.32733603 11 18 C10.67 18.66 10.34 19.32 10 20 C8.68 19.34 7.36 18.68 6 18 C6 16.68 6 15.36 6 14 C5.34 14 4.68 14 4 14 C3.9175 13.071875 3.835 12.14375 3.75 11.1875 C3.29742448 7.91490121 3.29742448 7.91490121 0.9375 6.125 C0.298125 5.75375 -0.34125 5.3825 -1 5 C-0.67 3.35 -0.34 1.7 0 0 Z " fill="#E3BF97" transform="translate(130,119)"/>
<path d="M0 0 C5.14096444 4.40654095 6.34338119 9.78605887 6.88671875 16.2421875 C6.92410156 16.82226562 6.96148437 17.40234375 7 18 C5.68 18 4.36 18 3 18 C3.03480469 17.39671875 3.06960937 16.7934375 3.10546875 16.171875 C3.27087875 11.28834163 3.26808154 8.8127618 0 5 C-0.1875 2.25 -0.1875 2.25 0 0 Z " fill="#DBB080" transform="translate(175,200)"/>
<path d="M0 0 C5 2 5 2 8 4 C8.51171875 6.1640625 8.51171875 6.1640625 8.6875 8.625 C8.78611328 9.85089844 8.78611328 9.85089844 8.88671875 11.1015625 C8.92410156 11.72804688 8.96148437 12.35453125 9 13 C8.01 13.495 8.01 13.495 7 14 C4.69 9.38 2.38 4.76 0 0 Z " fill="#E0BA8C" transform="translate(200,297)"/>
<path d="M0 0 C4.28611046 5.05148732 8.1824039 10.25483221 9 17 C8.01 16.67 7.02 16.34 6 16 C6 14.68 6 13.36 6 12 C5.34 12 4.68 12 4 12 C3 11 2 10 1 9 C0.34 9 -0.32 9 -1 9 C-0.67 6.03 -0.34 3.06 0 0 Z " fill="#E4C29F" transform="translate(179,125)"/>
<path d="M0 0 C2.29160319 -0.02692484 4.58329546 -0.04636124 6.875 -0.0625 C8.15117187 -0.07410156 9.42734375 -0.08570313 10.7421875 -0.09765625 C14 0 14 0 16 1 C15.625 3.9375 15.625 3.9375 15 7 C14.01 7.495 14.01 7.495 13 8 C12.67 6.35 12.34 4.7 12 3 C8.04 2.67 4.08 2.34 0 2 C0 1.34 0 0.68 0 0 Z " fill="#E3CFB7" transform="translate(283,131)"/>
<path d="M0 0 C0.66 0.33 1.32 0.66 2 1 C-0.31 4.96 -2.62 8.92 -5 13 C-7.17766075 8.64467851 -7.03039555 7.53374042 -6 3 C-5.34 3 -4.68 3 -4 3 C-3.67 2.34 -3.34 1.68 -3 1 C-2.01 0.67 -1.02 0.34 0 0 Z " fill="#DBB887" transform="translate(367,98)"/>
<path d="M0 0 C4.35763296 0.5028038 6.91905734 3.05301137 10 6 C11.375 8.8125 11.375 8.8125 12 11 C11.01 11.33 10.02 11.66 9 12 C8.608125 11.030625 8.21625 10.06125 7.8125 9.0625 C6.32405113 5.77823609 6.32405113 5.77823609 3.3125 5.125 C2.1678125 5.063125 2.1678125 5.063125 1 5 C0.67 3.35 0.34 1.7 0 0 Z " fill="#E2BC84" transform="translate(160,183)"/>
<path d="M0 0 C1.12890625 1.73828125 1.12890625 1.73828125 2 4 C0.94305127 7.07943441 -0.84506845 9.57292504 -3 12 C-5.8125 13 -5.8125 13 -8 13 C-7.34 12.67 -6.68 12.34 -6 12 C-5.87625 10.865625 -5.7525 9.73125 -5.625 8.5625 C-5.41875 7.386875 -5.2125 6.21125 -5 5 C-3 3.75 -3 3.75 -1 3 C-0.67 2.01 -0.34 1.02 0 0 Z " fill="#DCB98F" transform="translate(239,169)"/>
<path d="M0 0 C0.66 0 1.32 0 2 0 C5.51629997 3.80932497 7.65846062 7.99971686 9 13 C9.33 13 9.66 13 10 13 C10 14.65 10 16.3 10 18 C7.22234334 15.53004782 5.63413398 12.81999181 3.875 9.5625 C3.35679688 8.61503906 2.83859375 7.66757813 2.3046875 6.69140625 C1.20081512 4.41425634 0.47860565 2.46890474 0 0 Z " fill="#E4C799" transform="translate(100,117)"/>
<path d="M0 0 C0.99 0 1.98 0 3 0 C1.35821735 4.77609498 -1.26546702 8.79382904 -4 13 C-4.66 12.67 -5.32 12.34 -6 12 C-5.67 10.02 -5.34 8.04 -5 6 C-4.34 6 -3.68 6 -3 6 C-2.67 5.01 -2.34 4.02 -2 3 C-1.34 3 -0.68 3 0 3 C0 2.01 0 1.02 0 0 Z " fill="#DEC08C" transform="translate(287,149)"/>
<path d="M0 0 C0.66 0.33 1.32 0.66 2 1 C-2.455 8.425 -2.455 8.425 -7 16 C-8.19156292 11.23374833 -7.3415946 10.12120649 -5 6 C-4.34 6 -3.68 6 -3 6 C-3 4.68 -3 3.36 -3 2 C-2.01 1.34 -1.02 0.68 0 0 Z " fill="#E6C8A3" transform="translate(280,163)"/>
<path d="M0 0 C2 2 2 2 2 5 C3.65 5.33 5.3 5.66 7 6 C7 9.3 7 12.6 7 16 C4.86200552 13.1493407 3.01222966 10.50066978 1.25 7.4375 C0.80140625 6.67308594 0.3528125 5.90867188 -0.109375 5.12109375 C-1 3 -1 3 0 0 Z " fill="#E7C597" transform="translate(167,234)"/>
<path d="M0 0 C0.66796875 1.76953125 0.66796875 1.76953125 1 4 C-0.07421875 5.88671875 -0.07421875 5.88671875 -1.6875 7.6875 C-2.20699219 8.28949219 -2.72648437 8.89148438 -3.26171875 9.51171875 C-5.18015576 11.15424572 -6.53373097 11.59701487 -9 12 C-7.79837179 8.57998124 -6.71200642 6.3990826 -4 4 C-2.9171875 2.9171875 -2.9171875 2.9171875 -1.8125 1.8125 C-1.214375 1.214375 -0.61625 0.61625 0 0 Z " fill="#DEBC90" transform="translate(297,171)"/>
<path d="M0 0 C0.33 0 0.66 0 1 0 C1.20086443 3.71599191 1.1519437 4.77208445 -1 8 C-1.66 8 -2.32 8 -3 8 C-3.33 9.65 -3.66 11.3 -4 13 C-4.99 13 -5.98 13 -7 13 C-5.37621488 8.27626146 -2.89006982 4.05818166 0 0 Z " fill="#E4C6A0" transform="translate(265,138)"/>
<path d="M0 0 C1 3 1 3 -0.43359375 5.91796875 C-1.09488281 6.99691406 -1.75617188 8.07585937 -2.4375 9.1875 C-3.09621094 10.27417969 -3.75492187 11.36085938 -4.43359375 12.48046875 C-5.20896484 13.72763672 -5.20896484 13.72763672 -6 15 C-7.13583456 11.28272326 -6.66670026 9.52948291 -5 6 C-4.01 6 -3.02 6 -2 6 C-2.33 5.01 -2.66 4.02 -3 3 C-2.01 2.01 -1.02 1.02 0 0 Z " fill="#E2BD97" transform="translate(281,245)"/>
<path d="M0 0 C1.8125 0.1875 1.8125 0.1875 4 1 C5.8125 3.25 5.8125 3.25 7 6 C6.6875 8.8125 6.6875 8.8125 6 11 C0 3.28571429 0 3.28571429 0 0 Z " fill="#E1C39A" transform="translate(208,311)"/>
<path d="M0 0 C3.54556225 3.54556225 5.29186565 7.04305957 6 12 C5.01 12.495 5.01 12.495 4 13 C2.02 9.04 0.04 5.08 -2 1 C-1.34 0.67 -0.68 0.34 0 0 Z " fill="#E1C199" transform="translate(148,199)"/>
<path d="M0 0 C0.66 0.99 1.32 1.98 2 3 C1.01 3.33 0.02 3.66 -1 4 C-1.33 5.65 -1.66 7.3 -2 9 C-2.66 9 -3.32 9 -4 9 C-4 10.32 -4 11.64 -4 13 C-5.32 13.33 -6.64 13.66 -8 14 C-6.6744419 10.37723685 -5.05653045 7.36494652 -2.875 4.1875 C-2.33617187 3.39730469 -1.79734375 2.60710937 -1.2421875 1.79296875 C-0.83226562 1.20128906 -0.42234375 0.60960938 0 0 Z " fill="#E3CA9F" transform="translate(229,119)"/>
<path d="M0 0 C0.99 0.33 1.98 0.66 3 1 C1.85865673 3.00256574 0.71181367 5.00199797 -0.4375 7 C-1.39462891 8.670625 -1.39462891 8.670625 -2.37109375 10.375 C-2.90863281 11.24125 -3.44617188 12.1075 -4 13 C-4.33 13 -4.66 13 -5 13 C-5 10.69 -5 8.38 -5 6 C-4.01 6.33 -3.02 6.66 -2 7 C-2.061875 5.824375 -2.061875 5.824375 -2.125 4.625 C-2 2 -2 2 0 0 Z " fill="#E4C495" transform="translate(257,120)"/>
<path d="M0 0 C0.99 0 1.98 0 3 0 C3.268125 0.763125 3.53625 1.52625 3.8125 2.3125 C4.79264168 4.99106782 4.79264168 4.99106782 6.5625 6.5 C8.48593335 8.50706089 8.63468585 10.29667526 9 13 C8.01 13.495 8.01 13.495 7 14 C4.69 9.38 2.38 4.76 0 0 Z " fill="#E0C39E" transform="translate(184,268)"/>
<path d="M0 0 C0.99 0 1.98 0 3 0 C3 0.66 3 1.32 3 2 C3.66 2 4.32 2 5 2 C5 2.66 5 3.32 5 4 C5.66 4.33 6.32 4.66 7 5 C7.33 5.99 7.66 6.98 8 8 C7.01 8.66 6.02 9.32 5 10 C3.35 6.7 1.7 3.4 0 0 Z " fill="#E4C290" transform="translate(174,250)"/>
<path d="M0 0 C1.32 0 2.64 0 4 0 C2.79157144 4.43090471 1.48331435 6.98112756 -2 10 C-3 8 -3 8 -2.44140625 6.0546875 C-2.15136719 5.33539063 -1.86132812 4.61609375 -1.5625 3.875 C-1.27503906 3.15054688 -0.98757813 2.42609375 -0.69140625 1.6796875 C-0.46324219 1.12539062 -0.23507812 0.57109375 0 0 Z " fill="#E2BF92" transform="translate(356,112)"/>
<path d="M0 0 C0.99 0 1.98 0 3 0 C1.94124926 3.40312738 0.99097846 6.01353231 -1 9 C-1.99 9 -2.98 9 -4 9 C-3.67 7.35 -3.34 5.7 -3 4 C-2.01 3.67 -1.02 3.34 0 3 C0 2.01 0 1.02 0 0 Z " fill="#DEBD94" transform="translate(271,260)"/>
<path d="M0 0 C0.66 0 1.32 0 2 0 C2.65234375 1.765625 2.65234375 1.765625 3 4 C2.00390625 5.921875 2.00390625 5.921875 0.5625 7.75 C0.08941406 8.36359375 -0.38367188 8.9771875 -0.87109375 9.609375 C-1.24363281 10.06828125 -1.61617187 10.5271875 -2 11 C-2.66 10.67 -3.32 10.34 -4 10 C-2.66666667 6.66666667 -1.33333333 3.33333333 0 0 Z " fill="#E7C49E" transform="translate(247,214)"/>
<path d="M0 0 C0.625 1.75 0.625 1.75 1 4 C0.34241884 5.33783753 -0.32563747 6.67054244 -1 8 C-1.42151885 9.57158878 -1.7968834 11.15629082 -2.125 12.75 C-2.29257812 13.54921875 -2.46015625 14.3484375 -2.6328125 15.171875 C-2.75398438 15.77515625 -2.87515625 16.3784375 -3 17 C-3.99 16.34 -4.98 15.68 -6 15 C-5.38062492 13.06069452 -4.75429312 11.12360987 -4.125 9.1875 C-3.77695312 8.10855469 -3.42890625 7.02960938 -3.0703125 5.91796875 C-2 3 -2 3 0 0 Z " fill="#E4C190" transform="translate(287,183)"/>
<path d="M0 0 C3.48247874 1.16082625 3.88819244 1.90932476 5.75 4.9375 C6.19859375 5.64777344 6.6471875 6.35804688 7.109375 7.08984375 C7.40328125 7.72019531 7.6971875 8.35054687 8 9 C7.67 9.66 7.34 10.32 7 11 C4 10 4 10 2.375 7.1875 C1.32007836 4.74199982 0.49954659 2.59764224 0 0 Z " fill="#E3BF99" transform="translate(196,157)"/>
<path d="M0 0 C1.08667969 0.01804688 2.17335938 0.03609375 3.29296875 0.0546875 C4.54013672 0.08949219 4.54013672 0.08949219 5.8125 0.125 C5.8125 0.455 5.8125 0.785 5.8125 1.125 C4.56533203 1.28935547 4.56533203 1.28935547 3.29296875 1.45703125 C2.20628906 1.61558594 1.11960937 1.77414063 0 1.9375 C-1.07894531 2.08832031 -2.15789062 2.23914063 -3.26953125 2.39453125 C-6.31706403 3.15743437 -7.19152286 3.82679288 -9.1875 6.125 C-9.8475 6.125 -10.5075 6.125 -11.1875 6.125 C-8.75134071 0.50309394 -5.8709133 -0.1262562 0 0 Z " fill="#E0C49F" transform="translate(277.1875,131.875)"/>
<path d="M0 0 C0.99 0 1.98 0 3 0 C1.58707905 4.8274799 -0.42974154 8.7162359 -3 13 C-3.66 12.01 -4.32 11.02 -5 10 C-4.125 7.3125 -4.125 7.3125 -3 5 C-2.01 5 -1.02 5 0 5 C-0.2784375 4.0409375 -0.2784375 4.0409375 -0.5625 3.0625 C-0.706875 2.381875 -0.85125 1.70125 -1 1 C-0.67 0.67 -0.34 0.34 0 0 Z " fill="#E2BF98" transform="translate(351,122)"/>
<path d="M0 0 C3.80881639 1.44472346 5.29742886 3.32603071 7 7 C6.67 7.99 6.34 8.98 6 10 C2.64888166 7.76592111 1.18446044 6.73784176 0.1875 2.75 C0.125625 1.8425 0.06375 0.935 0 0 Z " fill="#DEBD90" transform="translate(215,190)"/>
<path d="M0 0 C0.99 0 1.98 0 3 0 C1.55049545 3.7910119 -0.15172566 7.3874638 -2 11 C-2.33 11 -2.66 11 -3 11 C-3.32136655 6.39374606 -2.91033076 3.66486096 0 0 Z " fill="#E3C19A" transform="translate(232,240)"/>
<path d="M0 0 C0.66 0.33 1.32 0.66 2 1 C0.58707905 5.8274799 -1.42974154 9.7162359 -4 14 C-5.58137059 9.25588824 -2.91444411 5.87701686 -0.8125 1.5625 C-0.544375 1.046875 -0.27625 0.53125 0 0 Z " fill="#E9CBA4" transform="translate(340,142)"/>
<path d="M0 0 C1 3 1 3 0.14453125 4.97265625 C-0.29503906 5.66230469 -0.73460937 6.35195312 -1.1875 7.0625 C-1.61417969 7.75472656 -2.04085937 8.44695312 -2.48046875 9.16015625 C-4.15440165 11.18694904 -5.59176317 12.00473296 -8 13 C-6.85605098 11.01974361 -5.70978896 9.04082322 -4.5625 7.0625 C-3.92441406 5.96035156 -3.28632813 4.85820313 -2.62890625 3.72265625 C-1 1 -1 1 0 0 Z " fill="#E4CBAB" transform="translate(239,103)"/>
<path d="M0 0 C1 2 1 2 0.51171875 3.875 C0.10373047 4.926875 0.10373047 4.926875 -0.3125 6 C-0.57675781 6.70125 -0.84101563 7.4025 -1.11328125 8.125 C-2 10 -2 10 -4 12 C-4.99 11.67 -5.98 11.34 -7 11 C-4.69 7.37 -2.38 3.74 0 0 Z " fill="#E6C2A0" transform="translate(257,151)"/>
<path d="M0 0 C1.98 0.495 1.98 0.495 4 1 C3.38461538 6.53846154 3.38461538 6.53846154 1.4375 8.875 C0.963125 9.24625 0.48875 9.6175 0 10 C-0.74926071 6.33694766 -1.2380014 3.57644848 0 0 Z " fill="#DDBA87" transform="translate(241,161)"/>
<path d="M0 0 C0.99 0.33 1.98 0.66 3 1 C3 1.66 3 2.32 3 3 C4.98 3 6.96 3 9 3 C8.34 4.32 7.68 5.64 7 7 C5.1875 6.875 5.1875 6.875 3 6 C1.25 2.9375 1.25 2.9375 0 0 Z " fill="#E7D1B0" transform="translate(220,248)"/>
<path d="M0 0 C0.99 0.33 1.98 0.66 3 1 C2.67 1.66 2.34 2.32 2 3 C2.33 3.99 2.66 4.98 3 6 C2.67 6.66 2.34 7.32 2 8 C2.66 8.33 3.32 8.66 4 9 C3.67 9.99 3.34 10.98 3 12 C-1.06153846 5.72307692 -1.06153846 5.72307692 -0.75 2.0625 C-0.5025 1.381875 -0.255 0.70125 0 0 Z " fill="#E4CDAF" transform="translate(162,223)"/>
<path d="M0 0 C3 0 3 0 4.38671875 1.3125 C5.59114583 2.875 6.79557292 4.4375 8 6 C7.34 6 6.68 6 6 6 C5.67 6.99 5.34 7.98 5 9 C2.67527795 6.14693203 1.2491742 3.45925163 0 0 Z " fill="#E6C495" transform="translate(158,142)"/>
<path d="M0 0 C3.76648956 1.6886947 5.16858533 3.24559993 7 7 C7 7.99 7 8.98 7 10 C4 9 4 9 2.83203125 6.93359375 C2.49558594 6.10988281 2.15914062 5.28617188 1.8125 4.4375 C1.46832031 3.61121094 1.12414062 2.78492188 0.76953125 1.93359375 C0.51558594 1.29550781 0.26164063 0.65742188 0 0 Z " fill="#E7CBA3" transform="translate(192,200)"/>
<path d="M0 0 C1.62463842 -0.05395478 3.24978541 -0.09277195 4.875 -0.125 C5.77992188 -0.14820312 6.68484375 -0.17140625 7.6171875 -0.1953125 C10 0 10 0 12 2 C11.75 5.0625 11.75 5.0625 11 8 C10.01 8.495 10.01 8.495 9 9 C9.33 7.02 9.66 5.04 10 3 C6.7 2.34 3.4 1.68 0 1 C0 0.67 0 0.34 0 0 Z " fill="#DCB892" transform="translate(360,88)"/>
<path d="M0 0 C2.81484045 1.40742022 3.27483399 3.25557592 4.625 6.0625 C5.07101563 6.98160156 5.51703125 7.90070313 5.9765625 8.84765625 C6.31429687 9.55792969 6.65203125 10.26820313 7 11 C3.21875 10.28125 3.21875 10.28125 1.25 7.75 C-0.05518125 4.87860126 -0.26648789 3.10902534 0 0 Z " fill="#E6CAA1" transform="translate(212,267)"/>
<path d="M0 0 C0.66 1.32 1.32 2.64 2 4 C1.360625 4.928125 0.72125 5.85625 0.0625 6.8125 C-2.08622093 9.84219943 -2.08622093 9.84219943 -3 13 C-3.66 12.67 -4.32 12.34 -5 12 C-4.35758106 10.186287 -3.71096881 8.37405876 -3.0625 6.5625 C-2.70285156 5.55316406 -2.34320313 4.54382813 -1.97265625 3.50390625 C-1 1 -1 1 0 0 Z " fill="#DFBF91" transform="translate(242,98)"/>
<path d="M0 0 C2.475 0.99 2.475 0.99 5 2 C5.33 4.64 5.66 7.28 6 10 C3.25722422 6.80009492 1.3697164 3.99500618 0 0 Z " fill="#E4C79C" transform="translate(200,297)"/>
<path d="M0 0 C2.97246802 2.54782974 4.41535288 5.45340883 6 9 C6 9.66 6 10.32 6 11 C5.01 10.67 4.02 10.34 3 10 C1.38346804 6.76693609 0.60852308 3.54971796 0 0 Z " fill="#E3CAA3" transform="translate(206,256)"/>
<path d="M0 0 C2.97069541 2.54631035 4.4775751 5.42230149 6 9 C5.67 9.66 5.34 10.32 5 11 C0.07692308 5.70769231 0.07692308 5.70769231 -0.3125 2.125 C-0.209375 1.42375 -0.10625 0.7225 0 0 Z " fill="#E1C29E" transform="translate(175,200)"/>
<path d="M0 0 C1.32 0.33 2.64 0.66 4 1 C1.525 5.455 1.525 5.455 -1 10 C-1.33 10 -1.66 10 -2 10 C-2 8.35 -2 6.7 -2 5 C-1.34 5 -0.68 5 0 5 C0 3.35 0 1.7 0 0 Z " fill="#E7C49C" transform="translate(306,199)"/>
<path d="M0 0 C0.66 0.33 1.32 0.66 2 1 C-1.625 6.875 -1.625 6.875 -5 8 C-5.3125 5.6875 -5.3125 5.6875 -5 3 C-2.625 1.125 -2.625 1.125 0 0 Z " fill="#E3BD8E" transform="translate(250,133)"/>
<path d="M0 0 C3.28465896 2.79196011 5.01321958 6.23196817 7 10 C7 10.66 7 11.32 7 12 C6.01 11.67 5.02 11.34 4 11 C3.6278958 9.67696283 3.29369827 8.34262065 3 7 C2.34 6.67 1.68 6.34 1 6 C0.375 2.9375 0.375 2.9375 0 0 Z " fill="#E5C9A6" transform="translate(164,100)"/>
<path d="M0 0 C0.6875 1.6875 0.6875 1.6875 1 4 C-0.4375 6.75 -0.4375 6.75 -2 9 C-2.66 8.67 -3.32 8.34 -4 8 C-2.87548273 5.0280615 -1.77706209 2.66559313 0 0 Z " fill="#E3CA9F" transform="translate(245,255)"/>
<path d="M0 0 C0.99 0 1.98 0 3 0 C2.75 2.875 2.75 2.875 2 6 C-0.0625 7.375 -0.0625 7.375 -2 8 C-1.34 5.36 -0.68 2.72 0 0 Z " fill="#DCB482" transform="translate(285,231)"/>
<path d="M0 0 C1.89213369 2.38573379 3.02391783 4.07175348 4 7 C1.6875 8.125 1.6875 8.125 -1 9 C-1.99 8.34 -2.98 7.68 -4 7 C-2.35 7 -0.7 7 1 7 C0.67 4.69 0.34 2.38 0 0 Z " fill="#DDC2A7" transform="translate(181,211)"/>
<path d="M0 0 C1.125 1.6875 1.125 1.6875 2 4 C1.125 6.75 1.125 6.75 0 9 C-1.32 9 -2.64 9 -4 9 C-2.80100302 5.9168649 -1.52299523 2.93720508 0 0 Z " fill="#E3BF9A" transform="translate(246,169)"/>
<path d="M0 0 C0.66 0.99 1.32 1.98 2 3 C0.38731308 5.71224618 -1.24901874 8.37352812 -3 11 C-3.66 11 -4.32 11 -5 11 C-3.55049545 7.2089881 -1.84827434 3.6125362 0 0 Z " fill="#E5CEA7" transform="translate(306,150)"/>
<path d="M0 0 C1.875 0.125 1.875 0.125 4 1 C5.25 4.0625 5.25 4.0625 6 7 C4.125 6.875 4.125 6.875 2 6 C0.75 2.9375 0.75 2.9375 0 0 Z " fill="#E1BE8F" transform="translate(122,156)"/>
<path d="M0 0 C2.95183101 2.95183101 3.08663988 5.95511947 4 10 C2.35 9.67 0.7 9.34 -1 9 C-0.67 6.03 -0.34 3.06 0 0 Z " fill="#DFBB89" transform="translate(179,125)"/>
<path d="M0 0 C0.99 0.33 1.98 0.66 3 1 C3 1.99 3 2.98 3 4 C4.32 4.66 5.64 5.32 7 6 C6.34 7.32 5.68 8.64 5 10 C3.35 6.7 1.7 3.4 0 0 Z " fill="#E8C9A1" transform="translate(94,107)"/>
<path d="M0 0 C0.99 0 1.98 0 3 0 C2.34 1.65 1.68 3.3 1 5 C-0.65 4.67 -2.3 4.34 -4 4 C-4.33 3.01 -4.66 2.02 -5 1 C-3.68 1.33 -2.36 1.66 -1 2 C-0.67 1.34 -0.34 0.68 0 0 Z " fill="#DFC8AC" transform="translate(227,336)"/>
<path d="M0 0 C0.99 0.33 1.98 0.66 3 1 C3 1.66 3 2.32 3 3 C3.66 3.33 4.32 3.66 5 4 C5.40729228 6.32156597 5.74438677 8.6568787 6 11 C2.90407165 7.4912812 1.25805377 4.50802601 0 0 Z " fill="#E7CBAD" transform="translate(192,282)"/>
<path d="M0 0 C0.99 0 1.98 0 3 0 C1.8141763 3.37503669 0.72426311 5.64722731 -2 8 C-2.33 6.68 -2.66 5.36 -3 4 C-2.34 4 -1.68 4 -1 4 C-0.67 2.68 -0.34 1.36 0 0 Z " fill="#E4C2A1" transform="translate(237,232)"/>
<path d="M0 0 C1.32 0.33 2.64 0.66 4 1 C4.33 2.98 4.66 4.96 5 7 C4.01 6.67 3.02 6.34 2 6 C0.8125 2.9375 0.8125 2.9375 0 0 Z " fill="#E6CA9C" transform="translate(87,94)"/>
<path d="M0 0 C0.66 0.33 1.32 0.66 2 1 C-0.475 5.455 -0.475 5.455 -3 10 C-3.33 10 -3.66 10 -4 10 C-3.67 7.69 -3.34 5.38 -3 3 C-2.01 2.67 -1.02 2.34 0 2 C0 1.34 0 0.68 0 0 Z " fill="#E2C199" transform="translate(270,179)"/>
<path d="M0 0 C0.99 0.33 1.98 0.66 3 1 C3.33 1.99 3.66 2.98 4 4 C4.66 4.33 5.32 4.66 6 5 C6 6.65 6 8.3 6 10 C3.25722422 6.80009492 1.3697164 3.99500618 0 0 Z " fill="#EBD0A7" transform="translate(178,176)"/>
<path d="M0 0 C2.25245881 2.68841859 3.88213958 4.64641875 5 8 C4.01 8 3.02 8 2 8 C2 7.34 2 6.68 2 6 C1.34 6 0.68 6 0 6 C0 4.02 0 2.04 0 0 Z " fill="#E2C4A2" transform="translate(174,117)"/>
<path d="M0 0 C2.97 0 5.94 0 9 0 C9.33 0.99 9.66 1.98 10 3 C8.5199159 2.88637738 7.04089926 2.75877092 5.5625 2.625 C4.73878906 2.55539063 3.91507813 2.48578125 3.06640625 2.4140625 C2.38449219 2.27742188 1.70257813 2.14078125 1 2 C0.67 1.34 0.34 0.68 0 0 Z " fill="#DFB37F" transform="translate(134,111)"/>
<path d="M0 0 C0.66 0 1.32 0 2 0 C0.66511872 3.59391114 -0.96022723 6.75490696 -3 10 C-3.66 9.01 -4.32 8.02 -5 7 C-4.01 6.67 -3.02 6.34 -2 6 C-0.77479736 2.99152582 -0.77479736 2.99152582 0 0 Z " fill="#E3C3A6" transform="translate(267,269)"/>
<path d="M0 0 C2.0625 1.75 2.0625 1.75 4 4 C3.75 6.25 3.75 6.25 3 8 C2.01 7.34 1.02 6.68 0 6 C-0.1875 2.875 -0.1875 2.875 0 0 Z " fill="#DFC49E" transform="translate(282,221)"/>
<path d="M0 0 C2.64 0 5.28 0 8 0 C7.34 1.32 6.68 2.64 6 4 C4.68 4 3.36 4 2 4 C1.34 2.68 0.68 1.36 0 0 Z " fill="#E0CBA6" transform="translate(228,181)"/>
<path d="M0 0 C0.99 0 1.98 0 3 0 C3 1.32 3 2.64 3 4 C3.99 4.33 4.98 4.66 6 5 C5.67 5.99 5.34 6.98 5 8 C2.27573689 5.64722731 1.1858237 3.37503669 0 0 Z " fill="#E8CBA2" transform="translate(217,162)"/>
<path d="M0 0 C2.11180592 2.57089417 3.66306057 4.63060567 4 8 C3.34 8.66 2.68 9.32 2 10 C0.39644899 6.49223216 -0.22036864 3.85645121 0 0 Z " fill="#E9C9A3" transform="translate(243,154)"/>
<path d="M0 0 C0.66 0.66 1.32 1.32 2 2 C1.25 4.4375 1.25 4.4375 0 7 C-1.32 7.33 -2.64 7.66 -4 8 C-2.68 5.36 -1.36 2.72 0 0 Z " fill="#DFC4A0" transform="translate(324,120)"/>
<path d="M0 0 C0.99 0.33 1.98 0.66 3 1 C1.7934375 1.8971875 1.7934375 1.8971875 0.5625 2.8125 C-2.22327984 4.80947276 -2.22327984 4.80947276 -3 8 C-3.66 8 -4.32 8 -5 8 C-4.66275164 4.88045262 -4.3790035 3.3790035 -2.125 1.125 C-1.42375 0.75375 -0.7225 0.3825 0 0 Z " fill="#D9B788" transform="translate(235,113)"/>
<path d="M0 0 C0.66 0 1.32 0 2 0 C2.33 1.32 2.66 2.64 3 4 C4.32 4.33 5.64 4.66 7 5 C6.67 5.66 6.34 6.32 6 7 C3.00675737 5.9024777 2.15389099 5.32317108 0.75 2.375 C0.5025 1.59125 0.255 0.8075 0 0 Z " fill="#E2BF9A" transform="translate(153,212)"/>
<path d="M0 0 C2.5 2.3125 2.5 2.3125 5 5 C5 5.99 5 6.98 5 8 C4.34 8 3.68 8 3 8 C2.87625 7.360625 2.7525 6.72125 2.625 6.0625 C2.315625 5.0415625 2.315625 5.0415625 2 4 C1.34 3.67 0.68 3.34 0 3 C0 2.01 0 1.02 0 0 Z " fill="#DFB77E" transform="translate(153,208)"/>
<path d="M0 0 C0 0.99 0 1.98 0 3 C-1.32 3 -2.64 3 -4 3 C-4.99 3.66 -5.98 4.32 -7 5 C-7 3.68 -7 2.36 -7 1 C-4.53721199 -0.231394 -2.7204945 -0.07159196 0 0 Z " fill="#E1B887" transform="translate(269,201)"/>
<path d="M0 0 C0.33 0.66 0.66 1.32 1 2 C0.06421005 4.35981813 -0.93347808 6.69631264 -2 9 C-2.99 9 -3.98 9 -5 9 C-3.7508258 5.54074837 -2.32472205 2.85306797 0 0 Z " fill="#E1C69E" transform="translate(241,178)"/>
<path d="M0 0 C0.33 0 0.66 0 1 0 C0.38461538 6.52307692 0.38461538 6.52307692 -1.5625 8.9375 C-2.036875 9.288125 -2.51125 9.63875 -3 10 C-3.3648363 5.74357648 -2.47460354 3.46444495 0 0 Z " fill="#E2C19D" transform="translate(275,169)"/>
<path d="M0 0 C0.66 0 1.32 0 2 0 C0.8141763 3.37503669 -0.27573689 5.64722731 -3 8 C-3 4 -3 4 -2 2 C-1.34 2 -0.68 2 0 2 C0 1.34 0 0.68 0 0 Z " fill="#E3C99E" transform="translate(285,154)"/>
<path d="M0 0 C0.33 0.66 0.66 1.32 1 2 C0.34 2 -0.32 2 -1 2 C-1.103125 2.78375 -1.20625 3.5675 -1.3125 4.375 C-2 7 -2 7 -5 9 C-4.5206753 4.68607774 -3.2542015 2.83430453 0 0 Z " fill="#DEB57D" transform="translate(230,122)"/>
<path d="M0 0 C0.66 0.33 1.32 0.66 2 1 C0.68 3.31 -0.64 5.62 -2 8 C-2.68707555 5.50935112 -3 3.62113708 -3 1 C-2.01 0.67 -1.02 0.34 0 0 Z " fill="#E1BC96" transform="translate(367,98)"/>
<path d="M0 0 C0.93423645 3.01031744 1.04449911 3.86650268 0 7 C-2.0625 8.1875 -2.0625 8.1875 -4 9 C-2.94124926 5.59687262 -1.99097846 2.98646769 0 0 Z " fill="#E6CA9F" transform="translate(240,263)"/>
<path d="M0 0 C0.99 0 1.98 0 3 0 C3 0.99 3 1.98 3 3 C2.34 3 1.68 3 1 3 C0.67 4.32 0.34 5.64 0 7 C-0.33 7 -0.66 7 -1 7 C-0.67 4.69 -0.34 2.38 0 0 Z " fill="#DFBC8C" transform="translate(258,232)"/>
<path d="M0 0 C1.32 0 2.64 0 4 0 C4.144375 0.598125 4.28875 1.19625 4.4375 1.8125 C4.8872439 3.56150404 5.42892341 5.28677023 6 7 C5.01 7.495 5.01 7.495 4 8 C2.68 5.36 1.36 2.72 0 0 Z " fill="#E7CAA4" transform="translate(141,192)"/>
<path d="M0 0 C2.25245881 2.68841859 3.88213958 4.64641875 5 8 C3.68 7.67 2.36 7.34 1 7 C0.67 4.69 0.34 2.38 0 0 Z " fill="#E4C4A3" transform="translate(204,168)"/>
<path d="M0 0 C0.66 0.33 1.32 0.66 2 1 C0.68 3.31 -0.64 5.62 -2 8 C-2.33 8 -2.66 8 -3 8 C-3 6.35 -3 4.7 -3 3 C-2.01 2.67 -1.02 2.34 0 2 C0 1.34 0 0.68 0 0 Z " fill="#E7C69E" transform="translate(345,135)"/>
<path d="M0 0 C1.0625 1.8125 1.0625 1.8125 2 4 C1.67 4.99 1.34 5.98 1 7 C0.01 7.33 -0.98 7.66 -2 8 C-2.20086443 4.28400809 -2.1519437 3.22791555 0 0 Z " fill="#DFBD8C" transform="translate(220,133)"/>
<path d="M0 0 C2.62187494 1.04874998 3.79371361 1.64931313 5.25 4.125 C5.4975 4.74375 5.745 5.3625 6 6 C5.01 6.33 4.02 6.66 3 7 C0 2.25 0 2.25 0 0 Z " fill="#E5CBA6" transform="translate(142,115)"/>
</svg>
