
<?xml version="1.0" encoding="UTF-8"?>
<!DOCTYPE svg PUBLIC "-//W3C//DTD SVG 1.1//EN" "http://www.w3.org/Graphics/SVG/1.1/DTD/svg11.dtd">
<svg xmlns="http://www.w3.org/2000/svg" version="1.1" width="459px" height="413px" style="shape-rendering:geometricPrecision; text-rendering:geometricPrecision; image-rendering:optimizeQuality; fill-rule:evenodd; clip-rule:evenodd" xmlns:xlink="http://www.w3.org/1999/xlink">
<g><path style="opacity:1" fill="#ddb071" d="M 153.5,89.5 C 157.378,93.5455 161.045,97.8788 164.5,102.5C 165.518,106.641 167.351,110.308 170,113.5C 170.333,115.5 170.667,117.5 171,119.5C 173.846,121.915 176.68,124.249 179.5,126.5C 181.924,129.008 183.59,132.008 184.5,135.5C 186.284,138.902 187.95,142.402 189.5,146C 189.167,146.333 188.833,146.667 188.5,147C 191.803,150.788 194.137,154.954 195.5,159.5C 194.167,159.5 192.833,159.5 191.5,159.5C 191.663,157.143 191.497,154.81 191,152.5C 190.29,151.027 189.124,150.36 187.5,150.5C 187.676,146.808 186.009,144.808 182.5,144.5C 182.849,147.463 181.849,149.796 179.5,151.5C 178.5,151.167 177.833,150.5 177.5,149.5C 178.38,146.223 179.047,142.889 179.5,139.5C 178.315,136.423 177.315,133.256 176.5,130C 173.932,128.017 171.599,128.183 169.5,130.5C 166.232,131.487 162.898,131.82 159.5,131.5C 159.357,133.262 159.691,134.929 160.5,136.5C 162.641,137.808 164.641,139.308 166.5,141C 166.643,143.435 166.31,145.935 165.5,148.5C 164.078,148.291 162.745,147.791 161.5,147C 161.833,146.667 162.167,146.333 162.5,146C 159.104,141.744 156.771,136.911 155.5,131.5C 151.591,127.353 148.424,122.686 146,117.5C 145.23,116.402 144.397,116.402 143.5,117.5C 142.833,117.5 142.5,117.167 142.5,116.5C 143.097,116.265 143.43,115.765 143.5,115C 142.556,113.523 141.223,112.523 139.5,112C 135.5,111.333 131.5,111.333 127.5,112C 126.687,113.314 125.687,114.481 124.5,115.5C 126.333,117.166 127.666,119.166 128.5,121.5C 129.183,121.137 129.85,120.804 130.5,120.5C 131.167,120.5 131.5,120.833 131.5,121.5C 130.957,121.56 130.624,121.893 130.5,122.5C 133.235,128.302 136.235,133.969 139.5,139.5C 137.843,142.547 138.843,143.88 142.5,143.5C 143.509,146.049 144.342,148.715 145,151.5C 147.871,152.965 149.371,155.298 149.5,158.5C 145.097,156.049 144.43,157.215 147.5,162C 146.902,163.301 145.902,164.135 144.5,164.5C 143.833,166.5 143.167,168.5 142.5,170.5C 140.831,164.843 141.498,159.509 144.5,154.5C 144.167,153.833 143.833,153.167 143.5,152.5C 142.749,153.376 142.249,154.376 142,155.5C 139.936,152.982 138.436,150.148 137.5,147C 137.995,144.991 137.995,142.824 137.5,140.5C 136.167,140.5 134.833,140.5 133.5,140.5C 132.025,142.677 132.025,141.344 133.5,136.5C 132.167,136.5 130.833,136.5 129.5,136.5C 129.5,134.833 129.5,133.167 129.5,131.5C 127.856,131.286 126.356,131.62 125,132.5C 124.667,135.833 124.333,139.167 124,142.5C 123.167,143.333 122.333,144.167 121.5,145C 122.833,146.333 124.167,147.667 125.5,149C 124.424,150.726 124.257,152.559 125,154.5C 127.787,157.262 129.287,160.595 129.5,164.5C 128.625,162.432 127.459,160.432 126,158.5C 124.871,156.859 123.371,155.859 121.5,155.5C 122.953,154.175 122.619,153.342 120.5,153C 120.833,152.667 121.167,152.333 121.5,152C 119.963,149.72 118.797,147.22 118,144.5C 116.517,141.674 114.517,139.341 112,137.5C 108.611,129.603 104.777,121.937 100.5,114.5C 100.561,110.951 99.7275,107.618 98,104.5C 97,103.167 96,103.167 95,104.5C 94.3405,101.953 94.5071,99.4528 95.5,97C 94.0218,95.5218 92.5218,94.0218 91,92.5C 90.3333,91.5 90.3333,90.5 91,89.5C 101.333,90.1667 111.667,90.8333 122,91.5C 128,90.1667 134,90.1667 140,91.5C 144.409,90.4689 148.909,89.8022 153.5,89.5 Z"/></g>
<g><path style="opacity:0.933" fill="#e0c29a" d="M 179.5,126.5 C 176.68,124.249 173.846,121.915 171,119.5C 170.667,117.5 170.333,115.5 170,113.5C 167.351,110.308 165.518,106.641 164.5,102.5C 161.045,97.8788 157.378,93.5455 153.5,89.5C 131.323,88.7561 108.99,88.0895 86.5,87.5C 86.3398,89.1992 86.5065,90.8659 87,92.5C 90.1967,97.0604 93.0301,101.894 95.5,107C 95.4301,107.765 95.0967,108.265 94.5,108.5C 90.3235,102.15 86.6569,95.4831 83.5,88.5C 83.7093,87.914 84.0426,87.414 84.5,87C 108.167,86.3333 131.833,86.3333 155.5,87C 164.653,99.4732 172.653,112.64 179.5,126.5 Z"/></g>
<g><path style="opacity:1" fill="#deb06f" d="M 333.5,146.5 C 332.122,145.766 330.622,145.099 329,144.5C 327.039,147.463 324.706,150.129 322,152.5C 317.429,149.392 316.596,145.559 319.5,141C 318.325,138.509 318.325,136.009 319.5,133.5C 323.713,133.301 325.046,131.301 323.5,127.5C 324.64,125.527 325.973,123.693 327.5,122C 326.748,121.329 326.414,120.496 326.5,119.5C 326.833,118.5 327.5,117.833 328.5,117.5C 330.173,116.657 331.34,115.324 332,113.5C 333.049,114.517 334.216,114.684 335.5,114C 335.273,111.631 335.107,109.131 335,106.5C 332.956,107.772 331.122,107.439 329.5,105.5C 329.704,106.529 329.204,107.529 328,108.5C 325.595,107.726 323.095,107.226 320.5,107C 319.874,106.25 319.374,105.416 319,104.5C 309.897,105.267 300.73,105.934 291.5,106.5C 284.031,106.244 276.697,105.244 269.5,103.5C 267.028,104.992 264.361,105.658 261.5,105.5C 261.563,109.781 259.563,112.448 255.5,113.5C 255.5,112.5 255.5,111.5 255.5,110.5C 259.157,110.026 259.324,108.693 256,106.5C 255.808,104.423 255.308,102.423 254.5,100.5C 253.719,101.729 253.219,103.062 253,104.5C 251.866,101.091 250.2,100.757 248,103.5C 246.535,104.33 245.035,104.496 243.5,104C 244.308,103.692 244.975,103.192 245.5,102.5C 244.948,100.997 244.948,99.3307 245.5,97.5C 245.328,96.5084 245.662,95.8417 246.5,95.5C 248.199,95.6602 249.866,95.4935 251.5,95C 249.963,93.8904 249.297,92.3904 249.5,90.5C 256.045,90.6303 262.211,90.6303 268,90.5C 272.461,92.9916 277.295,94.3249 282.5,94.5C 296.141,94.3508 309.808,94.3508 323.5,94.5C 332.838,93.9441 342.172,93.2775 351.5,92.5C 351.887,91.2801 352.72,90.6135 354,90.5C 358.148,91.3545 362.648,91.5212 367.5,91C 368.993,92.1562 368.826,92.9896 367,93.5C 364.865,94.1271 362.698,94.6271 360.5,95C 361.167,96.6667 361.833,98.3333 362.5,100C 361.101,100.595 359.768,100.428 358.5,99.5C 357.729,97.1378 356.895,94.8045 356,92.5C 355.683,94.3008 355.016,94.6341 354,93.5C 353.333,94.8333 353.333,96.1667 354,97.5C 355.843,100.022 357.01,102.855 357.5,106C 356.684,110.144 354.851,110.644 352,107.5C 351.631,110.877 351.631,114.21 352,117.5C 351.15,118.424 350.15,118.424 349,117.5C 345.881,120.041 344.381,123.375 344.5,127.5C 343.5,127.5 342.5,127.5 341.5,127.5C 338.983,131.841 336.649,136.341 334.5,141C 334.988,142.584 335.988,143.751 337.5,144.5C 336.234,145.362 334.901,146.029 333.5,146.5 Z"/></g>
<g><path style="opacity:1" fill="#ddb57d" d="M 153.5,89.5 C 148.909,89.8022 144.409,90.4689 140,91.5C 134,90.1667 128,90.1667 122,91.5C 111.667,90.8333 101.333,90.1667 91,89.5C 90.3333,90.5 90.3333,91.5 91,92.5C 92.5218,94.0218 94.0218,95.5218 95.5,97C 94.5071,99.4528 94.3405,101.953 95,104.5C 96,103.167 97,103.167 98,104.5C 99.7275,107.618 100.561,110.951 100.5,114.5C 99.3951,113.4 98.0618,112.733 96.5,112.5C 95.8333,111.167 95.1667,109.833 94.5,108.5C 95.0967,108.265 95.4301,107.765 95.5,107C 93.0301,101.894 90.1967,97.0604 87,92.5C 86.5065,90.8659 86.3398,89.1992 86.5,87.5C 108.99,88.0895 131.323,88.7561 153.5,89.5 Z"/></g>
<g><path style="opacity:0.4" fill="#dec39d" d="M 367.5,98.5 C 368.92,95.7387 369.587,92.7387 369.5,89.5C 330.67,88.5015 291.67,88.1681 252.5,88.5C 248.438,88.9354 246.438,91.2687 246.5,95.5C 245.662,95.8417 245.328,96.5084 245.5,97.5C 241.326,104.369 236.659,111.036 231.5,117.5C 231.649,118.552 231.483,119.552 231,120.5C 228.597,121.781 226.763,123.614 225.5,126C 225.833,126.333 226.167,126.667 226.5,127C 225.552,127.483 224.552,127.649 223.5,127.5C 231.286,113.426 239.953,99.9259 249.5,87C 290.167,86.3333 330.833,86.3333 371.5,87C 372.167,87.6667 372.833,88.3333 373.5,89C 371.85,92.4845 369.85,95.6512 367.5,98.5 Z"/></g>
<g><path style="opacity:0.934" fill="#e1bc87" d="M 252.5,88.5 C 291.67,88.1681 330.67,88.5015 369.5,89.5C 331.124,89.1729 292.79,89.5062 254.5,90.5C 253.478,90.1445 252.811,89.4778 252.5,88.5 Z"/></g>
<g><path style="opacity:1" fill="#deb071" d="M 245.5,138.5 C 243.886,140.456 242.219,142.456 240.5,144.5C 240.778,147.067 240.944,149.733 241,152.5C 242.335,156.191 243.501,159.858 244.5,163.5C 244.672,164.492 244.338,165.158 243.5,165.5C 242.5,165.5 241.5,165.5 240.5,165.5C 240.762,166.978 240.429,168.311 239.5,169.5C 235.114,170.713 232.948,173.713 233,178.5C 228.356,174.35 224.189,169.684 220.5,164.5C 221.534,162.183 220.534,161.183 217.5,161.5C 217.662,159.473 217.495,157.473 217,155.5C 212.967,150.57 213.801,148.57 219.5,149.5C 219.351,150.552 219.517,151.552 220,152.5C 220.427,148.958 221.593,145.792 223.5,143C 223,142.5 222.5,142 222,141.5C 220.491,142.09 218.991,142.756 217.5,143.5C 219.924,145.714 219.257,146.714 215.5,146.5C 216.933,140.966 219.433,135.966 223,131.5C 223.49,130.207 223.657,128.873 223.5,127.5C 224.552,127.649 225.552,127.483 226.5,127C 226.167,126.667 225.833,126.333 225.5,126C 226.763,123.614 228.597,121.781 231,120.5C 231.483,119.552 231.649,118.552 231.5,117.5C 233.148,116.19 234.814,114.857 236.5,113.5C 237.167,113.833 237.833,114.167 238.5,114.5C 239.123,112.034 239.957,109.701 241,107.5C 241.492,108.549 241.326,109.549 240.5,110.5C 240.846,111.696 241.346,111.696 242,110.5C 242.167,111.167 242.333,111.833 242.5,112.5C 241.529,115.823 241.195,118.989 241.5,122C 245.357,125.2 246.023,128.866 243.5,133C 244.378,134.8 245.045,136.633 245.5,138.5 Z"/></g>
<g><path style="opacity:1" fill="#ddb173" d="M 245.5,97.5 C 244.948,99.3307 244.948,100.997 245.5,102.5C 244.975,103.192 244.308,103.692 243.5,104C 245.035,104.496 246.535,104.33 248,103.5C 250.2,100.757 251.866,101.091 253,104.5C 253.219,103.062 253.719,101.729 254.5,100.5C 255.308,102.423 255.808,104.423 256,106.5C 259.324,108.693 259.157,110.026 255.5,110.5C 255.5,111.5 255.5,112.5 255.5,113.5C 259.563,112.448 261.563,109.781 261.5,105.5C 264.361,105.658 267.028,104.992 269.5,103.5C 276.697,105.244 284.031,106.244 291.5,106.5C 300.73,105.934 309.897,105.267 319,104.5C 319.374,105.416 319.874,106.25 320.5,107C 323.095,107.226 325.595,107.726 328,108.5C 329.204,107.529 329.704,106.529 329.5,105.5C 331.122,107.439 332.956,107.772 335,106.5C 335.107,109.131 335.273,111.631 335.5,114C 334.216,114.684 333.049,114.517 332,113.5C 331.34,115.324 330.173,116.657 328.5,117.5C 328.771,115.62 328.104,114.287 326.5,113.5C 323.262,111.773 319.595,110.773 315.5,110.5C 298.74,111.124 281.74,112.124 264.5,113.5C 264.167,113.5 263.833,113.5 263.5,113.5C 262.178,113.33 261.011,113.663 260,114.5C 259.07,117.362 257.403,119.695 255,121.5C 252.889,127.718 249.723,133.385 245.5,138.5C 245.045,136.633 244.378,134.8 243.5,133C 246.023,128.866 245.357,125.2 241.5,122C 241.195,118.989 241.529,115.823 242.5,112.5C 242.333,111.833 242.167,111.167 242,110.5C 241.346,111.696 240.846,111.696 240.5,110.5C 241.326,109.549 241.492,108.549 241,107.5C 239.957,109.701 239.123,112.034 238.5,114.5C 237.833,114.167 237.167,113.833 236.5,113.5C 234.814,114.857 233.148,116.19 231.5,117.5C 236.659,111.036 241.326,104.369 245.5,97.5 Z"/></g>
<g><path style="opacity:0.694" fill="#e0bb8d" d="M 326.5,113.5 C 305.833,113.5 285.167,113.5 264.5,113.5C 281.74,112.124 298.74,111.124 315.5,110.5C 319.595,110.773 323.262,111.773 326.5,113.5 Z"/></g>
<g><path style="opacity:0.588" fill="#dfbb92" d="M 142.5,116.5 C 141.733,115.828 141.066,114.995 140.5,114C 136.514,113.501 132.514,113.334 128.5,113.5C 128.878,115.921 129.545,118.254 130.5,120.5C 129.85,120.804 129.183,121.137 128.5,121.5C 127.666,119.166 126.333,117.166 124.5,115.5C 125.687,114.481 126.687,113.314 127.5,112C 131.5,111.333 135.5,111.333 139.5,112C 141.223,112.523 142.556,113.523 143.5,115C 143.43,115.765 143.097,116.265 142.5,116.5 Z"/></g>
<g><path style="opacity:1" fill="#ddb075" d="M 252.5,88.5 C 252.811,89.4778 253.478,90.1445 254.5,90.5C 292.79,89.5062 331.124,89.1729 369.5,89.5C 369.587,92.7387 368.92,95.7387 367.5,98.5C 365.351,103.465 362.684,108.132 359.5,112.5C 358.448,112.351 357.448,112.517 356.5,113C 354.975,117.544 352.142,121.044 348,123.5C 346.767,128.545 344.767,133.212 342,137.5C 341.506,139.134 341.34,140.801 341.5,142.5C 338.006,144.854 335.839,148.187 335,152.5C 334.329,153.252 333.496,153.586 332.5,153.5C 330.937,150.868 331.27,148.535 333.5,146.5C 334.901,146.029 336.234,145.362 337.5,144.5C 335.988,143.751 334.988,142.584 334.5,141C 336.649,136.341 338.983,131.841 341.5,127.5C 342.5,127.5 343.5,127.5 344.5,127.5C 344.381,123.375 345.881,120.041 349,117.5C 350.15,118.424 351.15,118.424 352,117.5C 351.631,114.21 351.631,110.877 352,107.5C 354.851,110.644 356.684,110.144 357.5,106C 357.01,102.855 355.843,100.022 354,97.5C 353.333,96.1667 353.333,94.8333 354,93.5C 355.016,94.6341 355.683,94.3008 356,92.5C 356.895,94.8045 357.729,97.1378 358.5,99.5C 359.768,100.428 361.101,100.595 362.5,100C 361.833,98.3333 361.167,96.6667 360.5,95C 362.698,94.6271 364.865,94.1271 367,93.5C 368.826,92.9896 368.993,92.1562 367.5,91C 362.648,91.5212 358.148,91.3545 354,90.5C 352.72,90.6135 351.887,91.2801 351.5,92.5C 342.172,93.2775 332.838,93.9441 323.5,94.5C 309.808,94.3508 296.141,94.3508 282.5,94.5C 277.295,94.3249 272.461,92.9916 268,90.5C 262.211,90.6303 256.045,90.6303 249.5,90.5C 249.297,92.3904 249.963,93.8904 251.5,95C 249.866,95.4935 248.199,95.6602 246.5,95.5C 246.438,91.2687 248.438,88.9354 252.5,88.5 Z"/></g>
<g><path style="opacity:0.227" fill="#dcc09c" d="M 326.5,113.5 C 328.104,114.287 328.771,115.62 328.5,117.5C 327.5,117.833 326.833,118.5 326.5,119.5C 324.549,122.786 322.215,125.786 319.5,128.5C 322.09,123.651 324.424,118.651 326.5,113.5 Z"/></g>
<g><path style="opacity:1" fill="#ddb06f" d="M 195.5,159.5 C 196.88,162.264 198.546,164.931 200.5,167.5C 202.098,171.316 201.098,174.316 197.5,176.5C 199.175,179.515 201.508,180.515 204.5,179.5C 205.478,179.977 206.311,180.643 207,181.5C 207.667,183.833 207.667,186.167 207,188.5C 206.667,188.167 206.333,187.833 206,187.5C 202.317,190.414 199.817,189.414 198.5,184.5C 196.604,183.534 194.604,183.201 192.5,183.5C 192.852,186.073 192.352,188.406 191,190.5C 189.983,186.45 188.65,182.45 187,178.5C 186.184,179.823 185.017,180.489 183.5,180.5C 179.643,174.195 175.143,167.195 170,159.5C 168.678,155.705 167.178,152.039 165.5,148.5C 166.31,145.935 166.643,143.435 166.5,141C 164.641,139.308 162.641,137.808 160.5,136.5C 159.691,134.929 159.357,133.262 159.5,131.5C 162.898,131.82 166.232,131.487 169.5,130.5C 171.599,128.183 173.932,128.017 176.5,130C 177.315,133.256 178.315,136.423 179.5,139.5C 179.047,142.889 178.38,146.223 177.5,149.5C 177.833,150.5 178.5,151.167 179.5,151.5C 181.849,149.796 182.849,147.463 182.5,144.5C 186.009,144.808 187.676,146.808 187.5,150.5C 189.124,150.36 190.29,151.027 191,152.5C 191.497,154.81 191.663,157.143 191.5,159.5C 192.833,159.5 194.167,159.5 195.5,159.5 Z"/></g>
<g><path style="opacity:1" fill="#deb071" d="M 149.5,158.5 C 150.999,160.164 151.999,162.164 152.5,164.5C 153.325,165.386 154.325,165.719 155.5,165.5C 155.678,168.216 156.178,170.883 157,173.5C 162.893,179.959 167.226,187.292 170,195.5C 170.278,194.584 170.778,193.918 171.5,193.5C 171.338,195.527 171.505,197.527 172,199.5C 175.074,205.161 178.241,210.661 181.5,216C 181.167,216.5 180.833,217 180.5,217.5C 172.833,216.842 165.166,216.009 157.5,215C 154.146,211.552 151.312,207.718 149,203.5C 147.691,198.214 145.357,193.548 142,189.5C 141.174,186.263 139.84,183.263 138,180.5C 137.667,178.167 137.333,175.833 137,173.5C 132.631,172.114 130.131,169.114 129.5,164.5C 129.287,160.595 127.787,157.262 125,154.5C 124.257,152.559 124.424,150.726 125.5,149C 124.167,147.667 122.833,146.333 121.5,145C 122.333,144.167 123.167,143.333 124,142.5C 124.333,139.167 124.667,135.833 125,132.5C 126.356,131.62 127.856,131.286 129.5,131.5C 129.5,133.167 129.5,134.833 129.5,136.5C 130.833,136.5 132.167,136.5 133.5,136.5C 132.025,141.344 132.025,142.677 133.5,140.5C 134.833,140.5 136.167,140.5 137.5,140.5C 137.995,142.824 137.995,144.991 137.5,147C 138.436,150.148 139.936,152.982 142,155.5C 142.249,154.376 142.749,153.376 143.5,152.5C 143.833,153.167 144.167,153.833 144.5,154.5C 141.498,159.509 140.831,164.843 142.5,170.5C 143.167,168.5 143.833,166.5 144.5,164.5C 145.902,164.135 146.902,163.301 147.5,162C 144.43,157.215 145.097,156.049 149.5,158.5 Z"/></g>
<g><path style="opacity:0.176" fill="#e4c095" d="M 263.5,113.5 C 256.344,125.139 249.178,136.805 242,148.5C 242.596,152.718 244.096,156.718 246.5,160.5C 246.058,161.739 245.391,162.739 244.5,163.5C 243.501,159.858 242.335,156.191 241,152.5C 240.944,149.733 240.778,147.067 240.5,144.5C 242.219,142.456 243.886,140.456 245.5,138.5C 249.723,133.385 252.889,127.718 255,121.5C 257.403,119.695 259.07,117.362 260,114.5C 261.011,113.663 262.178,113.33 263.5,113.5 Z"/></g>
<g><path style="opacity:0.545" fill="#e1c6a2" d="M 319.5,128.5 C 319.361,131.588 318.361,134.255 316.5,136.5C 314.863,138.316 313.363,140.316 312,142.5C 311.329,143.252 310.496,143.586 309.5,143.5C 312.598,138.291 315.932,133.291 319.5,128.5 Z"/></g>
<g><path style="opacity:0.757" fill="#e1bd93" d="M 359.5,112.5 C 353.863,122.784 347.863,132.784 341.5,142.5C 341.34,140.801 341.506,139.134 342,137.5C 344.767,133.212 346.767,128.545 348,123.5C 352.142,121.044 354.975,117.544 356.5,113C 357.448,112.517 358.448,112.351 359.5,112.5 Z"/></g>
<g><path style="opacity:0.957" fill="#e0be97" d="M 131.5,121.5 C 139.93,135.931 147.93,150.597 155.5,165.5C 154.325,165.719 153.325,165.386 152.5,164.5C 151.999,162.164 150.999,160.164 149.5,158.5C 149.371,155.298 147.871,152.965 145,151.5C 144.342,148.715 143.509,146.049 142.5,143.5C 138.843,143.88 137.843,142.547 139.5,139.5C 136.235,133.969 133.235,128.302 130.5,122.5C 130.624,121.893 130.957,121.56 131.5,121.5 Z"/></g>
<g><path style="opacity:1" fill="#deb67f" d="M 223.5,127.5 C 223.657,128.873 223.49,130.207 223,131.5C 219.433,135.966 216.933,140.966 215.5,146.5C 219.257,146.714 219.924,145.714 217.5,143.5C 218.991,142.756 220.491,142.09 222,141.5C 222.5,142 223,142.5 223.5,143C 221.593,145.792 220.427,148.958 220,152.5C 219.517,151.552 219.351,150.552 219.5,149.5C 213.801,148.57 212.967,150.57 217,155.5C 217.495,157.473 217.662,159.473 217.5,161.5C 220.534,161.183 221.534,162.183 220.5,164.5C 219.791,163.596 218.791,163.263 217.5,163.5C 216.263,162.035 215.263,160.368 214.5,158.5C 214.611,157.883 214.944,157.383 215.5,157C 213.824,154.826 212.824,152.326 212.5,149.5C 213.308,146.408 214.308,143.408 215.5,140.5C 217.919,135.991 220.586,131.658 223.5,127.5 Z"/></g>
<g><path style="opacity:1" fill="#ddb071" d="M 326.5,119.5 C 326.414,120.496 326.748,121.329 327.5,122C 325.973,123.693 324.64,125.527 323.5,127.5C 325.046,131.301 323.713,133.301 319.5,133.5C 318.325,136.009 318.325,138.509 319.5,141C 316.596,145.559 317.429,149.392 322,152.5C 324.706,150.129 327.039,147.463 329,144.5C 330.622,145.099 332.122,145.766 333.5,146.5C 331.27,148.535 330.937,150.868 332.5,153.5C 330.907,155.658 329.074,157.658 327,159.5C 326.788,162.252 325.955,164.752 324.5,167C 325.713,169.641 324.713,170.808 321.5,170.5C 321.634,172.292 321.301,173.958 320.5,175.5C 316.488,174.887 314.488,176.554 314.5,180.5C 313.5,180.5 312.5,180.5 311.5,180.5C 311.662,182.527 311.495,184.527 311,186.5C 309.113,188.026 308.113,190.026 308,192.5C 307,191.833 306,191.167 305,190.5C 304.381,187.968 303.381,185.635 302,183.5C 298.656,186.196 295.156,186.696 291.5,185C 292.329,183.184 293.163,181.351 294,179.5C 296.09,178.848 298.257,178.681 300.5,179C 301.337,177.989 301.67,176.822 301.5,175.5C 300.167,175.5 298.833,175.5 297.5,175.5C 297.022,172.722 298.022,170.722 300.5,169.5C 301.246,168.264 301.579,166.93 301.5,165.5C 301.34,163.801 301.506,162.134 302,160.5C 305.242,157.007 308.242,153.34 311,149.5C 311.719,145.009 313.885,141.509 317.5,139C 316.748,138.329 316.414,137.496 316.5,136.5C 318.361,134.255 319.361,131.588 319.5,128.5C 322.215,125.786 324.549,122.786 326.5,119.5 Z"/></g>
<g><path style="opacity:1" fill="#ddb071" d="M 289.5,143.5 C 287.832,148.585 284.999,152.919 281,156.5C 280.505,158.473 280.338,160.473 280.5,162.5C 279.325,162.281 278.325,162.614 277.5,163.5C 276.626,165.747 276.292,168.08 276.5,170.5C 276.5,171.167 276.167,171.5 275.5,171.5C 275.565,171.062 275.399,170.728 275,170.5C 271.183,174.791 267.85,179.458 265,184.5C 263.798,186.677 263.298,189.011 263.5,191.5C 263.34,193.153 262.674,194.486 261.5,195.5C 258.53,196.308 256.697,198.308 256,201.5C 254.829,202.893 253.329,203.727 251.5,204C 250.68,205.576 250.68,207.743 251.5,210.5C 250.5,210.5 249.5,210.5 248.5,210.5C 248.617,212.484 247.95,214.15 246.5,215.5C 246.855,216.522 247.522,217.189 248.5,217.5C 248.5,218.167 248.167,218.5 247.5,218.5C 246.391,218.557 245.391,218.89 244.5,219.5C 243.5,219.5 242.5,219.5 241.5,219.5C 241.785,217.712 241.452,216.045 240.5,214.5C 238.869,216.059 238.036,218.059 238,220.5C 233.717,217.924 233.883,215.258 238.5,212.5C 233.309,212.297 228.976,210.297 225.5,206.5C 227.35,204.786 228.684,202.786 229.5,200.5C 231.268,198.078 232.768,195.412 234,192.5C 234.74,191.251 234.573,190.251 233.5,189.5C 233.833,188.833 234.167,188.167 234.5,187.5C 235.496,187.586 236.329,187.252 237,186.5C 239.907,182.848 242.907,179.181 246,175.5C 246.497,173.19 246.663,170.857 246.5,168.5C 255.877,161.418 262.211,152.084 265.5,140.5C 266.026,138.77 267.026,137.436 268.5,136.5C 269.598,137.397 269.598,138.23 268.5,139C 269.328,139.915 270.328,140.581 271.5,141C 292.803,141.16 292.803,140.326 271.5,138.5C 277.644,138.029 283.644,137.029 289.5,135.5C 290.205,138.089 290.205,140.756 289.5,143.5 Z"/></g>
<g><path style="opacity:0.275" fill="#e3c4a5" d="M 260.5,145.5 C 261.573,146.251 261.74,147.251 261,148.5C 258.108,150.394 256.441,153.061 256,156.5C 255.184,157.823 254.017,158.489 252.5,158.5C 254.429,153.628 257.095,149.295 260.5,145.5 Z"/></g>
<g><path style="opacity:0.806" fill="#e2c69e" d="M 276.5,170.5 C 276.292,168.08 276.626,165.747 277.5,163.5C 278.325,162.614 279.325,162.281 280.5,162.5C 280.338,160.473 280.505,158.473 281,156.5C 284.999,152.919 287.832,148.585 289.5,143.5C 293.513,140.979 295.18,137.479 294.5,133C 286.452,132.225 278.452,132.558 270.5,134C 269.244,134.417 268.577,135.25 268.5,136.5C 267.026,137.436 266.026,138.77 265.5,140.5C 263.821,141.916 262.154,143.25 260.5,144.5C 262.921,139.582 266.254,135.415 270.5,132C 275.519,131.665 280.519,131.165 285.5,130.5C 289.474,130.626 293.474,130.959 297.5,131.5C 298.663,133.55 298.496,135.55 297,137.5C 290.142,148.564 283.308,159.564 276.5,170.5 Z"/></g>
<g><path style="opacity:1" fill="#dcb077" d="M 289.5,143.5 C 290.205,140.756 290.205,138.089 289.5,135.5C 283.644,137.029 277.644,138.029 271.5,138.5C 292.803,140.326 292.803,141.16 271.5,141C 270.328,140.581 269.328,139.915 268.5,139C 269.598,138.23 269.598,137.397 268.5,136.5C 268.577,135.25 269.244,134.417 270.5,134C 278.452,132.558 286.452,132.225 294.5,133C 295.18,137.479 293.513,140.979 289.5,143.5 Z"/></g>
<g><path style="opacity:0.369" fill="#e2c397" d="M 96.5,112.5 C 98.0618,112.733 99.3951,113.4 100.5,114.5C 104.777,121.937 108.611,129.603 112,137.5C 114.517,139.341 116.517,141.674 118,144.5C 118.797,147.22 119.963,149.72 121.5,152C 121.167,152.333 120.833,152.667 120.5,153C 122.619,153.342 122.953,154.175 121.5,155.5C 112.916,141.334 104.582,127 96.5,112.5 Z"/></g>
<g><path style="opacity:0.518" fill="#e6c9a6" d="M 215.5,140.5 C 214.308,143.408 213.308,146.408 212.5,149.5C 212.824,152.326 213.824,154.826 215.5,157C 214.944,157.383 214.611,157.883 214.5,158.5C 212.608,155.724 210.941,152.724 209.5,149.5C 210.78,145.917 212.78,142.917 215.5,140.5 Z"/></g>
<g><path style="opacity:1" fill="#deb684" d="M 265.5,140.5 C 262.211,152.084 255.877,161.418 246.5,168.5C 248,164.827 250,161.494 252.5,158.5C 254.017,158.489 255.184,157.823 256,156.5C 256.441,153.061 258.108,150.394 261,148.5C 261.74,147.251 261.573,146.251 260.5,145.5C 260.5,145.167 260.5,144.833 260.5,144.5C 262.154,143.25 263.821,141.916 265.5,140.5 Z"/></g>
<g><path style="opacity:1" fill="#dfbd94" d="M 184.5,135.5 C 197.726,156.937 210.726,178.604 223.5,200.5C 224.651,201.731 225.817,201.731 227,200.5C 229.178,196.806 231.345,193.139 233.5,189.5C 234.573,190.251 234.74,191.251 234,192.5C 232.768,195.412 231.268,198.078 229.5,200.5C 228.373,201.122 227.373,201.955 226.5,203C 225.5,203.667 224.5,203.667 223.5,203C 221.155,200.127 218.488,197.627 215.5,195.5C 215.799,193.396 215.466,191.396 214.5,189.5C 209.835,182.093 205.168,174.76 200.5,167.5C 198.546,164.931 196.88,162.264 195.5,159.5C 194.137,154.954 191.803,150.788 188.5,147C 188.833,146.667 189.167,146.333 189.5,146C 187.95,142.402 186.284,138.902 184.5,135.5 Z"/></g>
<g><path style="opacity:0.98" fill="#e0c191" d="M 316.5,136.5 C 316.414,137.496 316.748,138.329 317.5,139C 313.885,141.509 311.719,145.009 311,149.5C 308.242,153.34 305.242,157.007 302,160.5C 301.506,162.134 301.34,163.801 301.5,165.5C 298.892,168.448 296.225,171.448 293.5,174.5C 292.692,176.423 292.192,178.423 292,180.5C 284.703,187.597 280.203,196.097 278.5,206C 281.397,207.715 282.731,210.215 282.5,213.5C 279.832,210.141 277.499,206.475 275.5,202.5C 286.893,182.796 298.227,163.129 309.5,143.5C 310.496,143.586 311.329,143.252 312,142.5C 313.363,140.316 314.863,138.316 316.5,136.5 Z"/></g>
<g><path style="opacity:0.427" fill="#e5c295" d="M 165.5,148.5 C 167.178,152.039 168.678,155.705 170,159.5C 175.143,167.195 179.643,174.195 183.5,180.5C 186.388,185.884 188.721,191.551 190.5,197.5C 174.332,171.17 158.666,144.504 143.5,117.5C 144.397,116.402 145.23,116.402 146,117.5C 148.424,122.686 151.591,127.353 155.5,131.5C 156.771,136.911 159.104,141.744 162.5,146C 162.167,146.333 161.833,146.667 161.5,147C 162.745,147.791 164.078,148.291 165.5,148.5 Z"/></g>
<g><path style="opacity:1" fill="#ddba8c" d="M 217.5,163.5 C 218.791,163.263 219.791,163.596 220.5,164.5C 224.189,169.684 228.356,174.35 233,178.5C 232.948,173.713 235.114,170.713 239.5,169.5C 240.429,168.311 240.762,166.978 240.5,165.5C 241.5,165.5 242.5,165.5 243.5,165.5C 240.231,172.389 236.231,178.723 231.5,184.5C 229.795,183.455 228.295,182.122 227,180.5C 223.821,174.806 220.655,169.139 217.5,163.5 Z"/></g>
<g><path style="opacity:0.749" fill="#debb90" d="M 246.5,168.5 C 246.663,170.857 246.497,173.19 246,175.5C 242.907,179.181 239.907,182.848 237,186.5C 236.329,187.252 235.496,187.586 234.5,187.5C 238.534,181.144 242.534,174.811 246.5,168.5 Z"/></g>
<g><path style="opacity:0.388" fill="#e4c59a" d="M 155.5,165.5 C 161.324,174.472 166.657,183.806 171.5,193.5C 170.778,193.918 170.278,194.584 170,195.5C 167.226,187.292 162.893,179.959 157,173.5C 156.178,170.883 155.678,168.216 155.5,165.5 Z"/></g>
<g><path style="opacity:0.788" fill="#dfbb90" d="M 275.5,171.5 C 271.89,178.434 267.89,185.1 263.5,191.5C 263.298,189.011 263.798,186.677 265,184.5C 267.85,179.458 271.183,174.791 275,170.5C 275.399,170.728 275.565,171.062 275.5,171.5 Z"/></g>
<g><path style="opacity:0.537" fill="#e2bf94" d="M 341.5,142.5 C 332.002,160.168 322.002,177.501 311.5,194.5C 310.876,194.083 310.543,193.416 310.5,192.5C 313.82,186.835 317.154,181.168 320.5,175.5C 321.301,173.958 321.634,172.292 321.5,170.5C 324.713,170.808 325.713,169.641 324.5,167C 325.955,164.752 326.788,162.252 327,159.5C 329.074,157.658 330.907,155.658 332.5,153.5C 333.496,153.586 334.329,153.252 335,152.5C 335.839,148.187 338.006,144.854 341.5,142.5 Z"/></g>
<g><path style="opacity:1" fill="#ddb070" d="M 200.5,167.5 C 205.168,174.76 209.835,182.093 214.5,189.5C 215.466,191.396 215.799,193.396 215.5,195.5C 216.823,198.817 218.157,202.15 219.5,205.5C 219.444,206.737 218.944,207.737 218,208.5C 217.667,214.5 217.333,220.5 217,226.5C 216.303,228.584 215.136,230.251 213.5,231.5C 210.282,226.424 206.782,221.424 203,216.5C 202.737,212.01 200.737,208.677 197,206.5C 196.667,205.167 196.333,203.833 196,202.5C 194.349,200.79 192.516,199.456 190.5,198.5C 190.5,198.167 190.5,197.833 190.5,197.5C 188.721,191.551 186.388,185.884 183.5,180.5C 185.017,180.489 186.184,179.823 187,178.5C 188.65,182.45 189.983,186.45 191,190.5C 192.352,188.406 192.852,186.073 192.5,183.5C 194.604,183.201 196.604,183.534 198.5,184.5C 199.817,189.414 202.317,190.414 206,187.5C 206.333,187.833 206.667,188.167 207,188.5C 207.667,186.167 207.667,183.833 207,181.5C 206.311,180.643 205.478,179.977 204.5,179.5C 201.508,180.515 199.175,179.515 197.5,176.5C 201.098,174.316 202.098,171.316 200.5,167.5 Z"/></g>
<g><path style="opacity:1" fill="#ddb070" d="M 304.5,199.5 C 302.374,207.092 298.707,213.758 293.5,219.5C 291.516,219.516 290.516,218.516 290.5,216.5C 291.322,214.313 292.822,212.647 295,211.5C 295.49,210.207 295.657,208.873 295.5,207.5C 293.833,207.5 292.167,207.5 290.5,207.5C 290.622,210.257 289.455,212.257 287,213.5C 286.581,211.32 286.748,209.154 287.5,207C 284.576,200.373 284.91,194.039 288.5,188C 289.449,187.383 290.282,187.549 291,188.5C 292.6,191.334 293.766,194.334 294.5,197.5C 296.167,195.833 297.833,194.167 299.5,192.5C 298.833,191.833 298.167,191.167 297.5,190.5C 298.723,189.386 300.056,189.219 301.5,190C 303.093,192.936 304.093,196.102 304.5,199.5 Z"/></g>
<g><path style="opacity:1" fill="#deb076" d="M 301.5,165.5 C 301.579,166.93 301.246,168.264 300.5,169.5C 298.022,170.722 297.022,172.722 297.5,175.5C 298.833,175.5 300.167,175.5 301.5,175.5C 301.67,176.822 301.337,177.989 300.5,179C 298.257,178.681 296.09,178.848 294,179.5C 293.163,181.351 292.329,183.184 291.5,185C 295.156,186.696 298.656,186.196 302,183.5C 303.381,185.635 304.381,187.968 305,190.5C 306,191.167 307,191.833 308,192.5C 308.113,190.026 309.113,188.026 311,186.5C 311.495,184.527 311.662,182.527 311.5,180.5C 312.5,180.5 313.5,180.5 314.5,180.5C 314.488,176.554 316.488,174.887 320.5,175.5C 317.154,181.168 313.82,186.835 310.5,192.5C 310.543,193.416 310.876,194.083 311.5,194.5C 311.672,195.492 311.338,196.158 310.5,196.5C 310.44,195.957 310.107,195.624 309.5,195.5C 308.614,196.325 308.281,197.325 308.5,198.5C 307.041,198.433 305.708,198.766 304.5,199.5C 304.093,196.102 303.093,192.936 301.5,190C 300.056,189.219 298.723,189.386 297.5,190.5C 298.167,191.167 298.833,191.833 299.5,192.5C 297.833,194.167 296.167,195.833 294.5,197.5C 293.766,194.334 292.6,191.334 291,188.5C 290.282,187.549 289.449,187.383 288.5,188C 284.91,194.039 284.576,200.373 287.5,207C 286.748,209.154 286.581,211.32 287,213.5C 289.455,212.257 290.622,210.257 290.5,207.5C 292.167,207.5 293.833,207.5 295.5,207.5C 295.657,208.873 295.49,210.207 295,211.5C 292.822,212.647 291.322,214.313 290.5,216.5C 290.516,218.516 291.516,219.516 293.5,219.5C 293.372,221.09 292.705,222.423 291.5,223.5C 288.417,221.583 286.25,218.916 285,215.5C 284.329,214.748 283.496,214.414 282.5,214.5C 282.5,214.167 282.5,213.833 282.5,213.5C 282.731,210.215 281.397,207.715 278.5,206C 280.203,196.097 284.703,187.597 292,180.5C 292.192,178.423 292.692,176.423 293.5,174.5C 296.225,171.448 298.892,168.448 301.5,165.5 Z"/></g>
<g><path style="opacity:1" fill="#e0bb90" d="M 261.5,195.5 C 257.163,202.841 252.83,210.175 248.5,217.5C 247.522,217.189 246.855,216.522 246.5,215.5C 247.95,214.15 248.617,212.484 248.5,210.5C 249.5,210.5 250.5,210.5 251.5,210.5C 250.68,207.743 250.68,205.576 251.5,204C 253.329,203.727 254.829,202.893 256,201.5C 256.697,198.308 258.53,196.308 261.5,195.5 Z"/></g>
<g><path style="opacity:1" fill="#deb06f" d="M 250.5,291.5 C 250.657,292.873 250.49,294.207 250,295.5C 247.541,299.462 245.374,303.462 243.5,307.5C 240.939,304.032 239.106,300.032 238,295.5C 234.078,297.312 229.911,297.979 225.5,297.5C 222.582,295.123 219.415,293.123 216,291.5C 216.611,288.967 217.111,286.3 217.5,283.5C 218.906,283.973 219.573,284.973 219.5,286.5C 219.264,288.049 219.264,289.549 219.5,291C 228.915,294.873 234.082,291.706 235,281.5C 237.119,282.651 238.953,284.151 240.5,286C 237.882,287.974 238.048,289.807 241,291.5C 242.498,289.375 242.664,287.041 241.5,284.5C 241.462,281.813 240.462,281.146 238.5,282.5C 237.256,278.677 237.922,275.177 240.5,272C 242.134,271.506 243.801,271.34 245.5,271.5C 245.5,273.5 245.5,275.5 245.5,277.5C 246.833,277.5 248.167,277.5 249.5,277.5C 249.232,274.881 249.565,272.381 250.5,270C 247.385,269.448 245.052,267.781 243.5,265C 244.141,262.87 245.474,261.37 247.5,260.5C 248.667,262.167 249.833,263.833 251,265.5C 252.814,261.972 252.981,258.305 251.5,254.5C 253.669,251.693 255.335,248.693 256.5,245.5C 258.681,245.716 260.347,244.883 261.5,243C 260.878,238.068 260.878,233.068 261.5,228C 260.084,225.735 258.084,224.569 255.5,224.5C 255.5,223.5 255.5,222.5 255.5,221.5C 255.993,219.51 257.16,219.51 259,221.5C 260.299,221.034 261.799,221.034 263.5,221.5C 263.5,220.167 263.5,218.833 263.5,217.5C 261.41,217.55 260.077,216.55 259.5,214.5C 261.5,210.683 263.666,207.016 266,203.5C 266.825,205.701 266.325,207.534 264.5,209C 265.446,212.231 267.28,214.731 270,216.5C 272.967,215.424 274.8,216.591 275.5,220C 273.271,226.635 272.938,233.469 274.5,240.5C 277.139,236.888 278.972,232.888 280,228.5C 284.237,231.448 284.571,234.781 281,238.5C 276.22,240.18 275.053,243.014 277.5,247C 276.76,249.943 275.76,250.109 274.5,247.5C 273.253,249.006 273.253,250.506 274.5,252C 272.924,252.44 271.59,253.273 270.5,254.5C 268.29,253.018 266.624,253.518 265.5,256C 267.984,258.284 268.151,260.784 266,263.5C 264.351,261.35 262.518,259.35 260.5,257.5C 258.967,261.692 257.967,266.025 257.5,270.5C 257.437,272.481 258.104,274.148 259.5,275.5C 258.625,277.773 256.958,278.773 254.5,278.5C 253.908,281.127 253.575,283.794 253.5,286.5C 247.727,286.537 246.727,288.204 250.5,291.5 Z"/></g>
<g><path style="opacity:0.62" fill="#dab98f" d="M 121.5,155.5 C 123.371,155.859 124.871,156.859 126,158.5C 127.459,160.432 128.625,162.432 129.5,164.5C 130.131,169.114 132.631,172.114 137,173.5C 137.333,175.833 137.667,178.167 138,180.5C 139.84,183.263 141.174,186.263 142,189.5C 145.357,193.548 147.691,198.214 149,203.5C 151.312,207.718 154.146,211.552 157.5,215C 165.166,216.009 172.833,216.842 180.5,217.5C 180.833,217 181.167,216.5 181.5,216C 178.241,210.661 175.074,205.161 172,199.5C 171.505,197.527 171.338,195.527 171.5,193.5C 175.725,201.29 180.059,209.124 184.5,217C 183.335,218.084 182.002,218.917 180.5,219.5C 172.549,218.697 164.549,218.197 156.5,218C 143.908,197.646 132.241,176.813 121.5,155.5 Z"/></g>
<g><path style="opacity:1" fill="#dbb074" d="M 215.5,195.5 C 218.488,197.627 221.155,200.127 223.5,203C 224.5,203.667 225.5,203.667 226.5,203C 227.373,201.955 228.373,201.122 229.5,200.5C 228.684,202.786 227.35,204.786 225.5,206.5C 228.976,210.297 233.309,212.297 238.5,212.5C 233.883,215.258 233.717,217.924 238,220.5C 238.036,218.059 238.869,216.059 240.5,214.5C 241.452,216.045 241.785,217.712 241.5,219.5C 242.5,219.5 243.5,219.5 244.5,219.5C 243.292,222.326 241.792,224.992 240,227.5C 239.51,228.793 239.343,230.127 239.5,231.5C 238.178,231.33 237.011,231.663 236,232.5C 235.023,234.74 234.523,237.073 234.5,239.5C 233.448,239.351 232.448,239.517 231.5,240C 230.002,242.482 228.502,244.982 227,247.5C 225.89,249.037 224.39,249.703 222.5,249.5C 219.464,243.479 216.464,237.479 213.5,231.5C 215.136,230.251 216.303,228.584 217,226.5C 217.333,220.5 217.667,214.5 218,208.5C 218.944,207.737 219.444,206.737 219.5,205.5C 218.157,202.15 216.823,198.817 215.5,195.5 Z"/></g>
<g><path style="opacity:1" fill="#ddb074" d="M 261.5,280.5 C 261.167,281.167 260.833,281.833 260.5,282.5C 259.5,282.5 258.5,282.5 257.5,282.5C 257.806,286.697 255.806,288.697 251.5,288.5C 251.737,289.791 251.404,290.791 250.5,291.5C 246.727,288.204 247.727,286.537 253.5,286.5C 253.575,283.794 253.908,281.127 254.5,278.5C 256.958,278.773 258.625,277.773 259.5,275.5C 258.104,274.148 257.437,272.481 257.5,270.5C 257.967,266.025 258.967,261.692 260.5,257.5C 262.518,259.35 264.351,261.35 266,263.5C 268.151,260.784 267.984,258.284 265.5,256C 266.624,253.518 268.29,253.018 270.5,254.5C 271.59,253.273 272.924,252.44 274.5,252C 273.253,250.506 273.253,249.006 274.5,247.5C 275.76,250.109 276.76,249.943 277.5,247C 275.053,243.014 276.22,240.18 281,238.5C 284.571,234.781 284.237,231.448 280,228.5C 278.972,232.888 277.139,236.888 274.5,240.5C 272.938,233.469 273.271,226.635 275.5,220C 274.8,216.591 272.967,215.424 270,216.5C 267.28,214.731 265.446,212.231 264.5,209C 266.325,207.534 266.825,205.701 266,203.5C 263.666,207.016 261.5,210.683 259.5,214.5C 260.077,216.55 261.41,217.55 263.5,217.5C 263.5,218.833 263.5,220.167 263.5,221.5C 261.799,221.034 260.299,221.034 259,221.5C 257.16,219.51 255.993,219.51 255.5,221.5C 254.876,221.083 254.543,220.416 254.5,219.5C 256.425,215.216 258.925,211.216 262,207.5C 262.495,205.527 262.662,203.527 262.5,201.5C 264.258,201.123 265.925,200.456 267.5,199.5C 270.791,202.504 272.124,206.004 271.5,210C 272.308,211.706 273.641,212.539 275.5,212.5C 278.116,219.221 281.45,226.221 285.5,233.5C 284.423,237.413 282.423,240.746 279.5,243.5C 278.777,245.782 278.443,248.116 278.5,250.5C 277.5,250.5 276.5,250.5 275.5,250.5C 275.785,252.288 275.452,253.955 274.5,255.5C 272.091,257.994 269.924,260.66 268,263.5C 265.915,269.264 263.748,274.93 261.5,280.5 Z"/></g>
<g><path style="opacity:0.894" fill="#e2bb95" d="M 310.5,196.5 C 304.764,206.97 298.764,217.303 292.5,227.5C 291.28,228.711 290.113,228.711 289,227.5C 287.347,222.861 285.181,218.528 282.5,214.5C 283.496,214.414 284.329,214.748 285,215.5C 286.25,218.916 288.417,221.583 291.5,223.5C 292.705,222.423 293.372,221.09 293.5,219.5C 298.707,213.758 302.374,207.092 304.5,199.5C 305.708,198.766 307.041,198.433 308.5,198.5C 308.281,197.325 308.614,196.325 309.5,195.5C 310.107,195.624 310.44,195.957 310.5,196.5 Z"/></g>
<g><path style="opacity:1" fill="#dfbd8e" d="M 186.5,222.5 C 186.701,226.13 188.368,228.797 191.5,230.5C 193.924,233.008 195.59,236.008 196.5,239.5C 192.128,235.464 188.128,231.13 184.5,226.5C 183.059,227.304 181.559,227.971 180,228.5C 178.832,227.491 177.665,226.491 176.5,225.5C 175.549,226.326 174.549,226.492 173.5,226C 173.833,225.667 174.167,225.333 174.5,225C 171.446,224.179 168.446,224.345 165.5,225.5C 164.294,227.516 164.294,229.516 165.5,231.5C 167.813,235.72 169.98,240.053 172,244.5C 178.171,250.064 181.338,256.731 181.5,264.5C 174.241,251.649 167.241,238.649 160.5,225.5C 160.608,224.558 160.941,223.725 161.5,223C 169.827,222.5 178.16,222.334 186.5,222.5 Z"/></g>
<g><path style="opacity:0.09" fill="#e2c39d" d="M 247.5,218.5 C 245.081,223.009 242.414,227.342 239.5,231.5C 239.343,230.127 239.51,228.793 240,227.5C 241.792,224.992 243.292,222.326 244.5,219.5C 245.391,218.89 246.391,218.557 247.5,218.5 Z"/></g>
<g><path style="opacity:0.21" fill="#e4c4a5" d="M 186.5,222.5 C 189.164,224.484 190.831,227.151 191.5,230.5C 188.368,228.797 186.701,226.13 186.5,222.5 Z"/></g>
<g><path style="opacity:0.49" fill="#e5c2a1" d="M 239.5,231.5 C 238.331,234.511 236.664,237.178 234.5,239.5C 234.523,237.073 235.023,234.74 236,232.5C 237.011,231.663 238.178,231.33 239.5,231.5 Z"/></g>
<g><path style="opacity:0.776" fill="#e2bf94" d="M 261.5,280.5 C 263.748,274.93 265.915,269.264 268,263.5C 269.924,260.66 272.091,257.994 274.5,255.5C 275.452,253.955 275.785,252.288 275.5,250.5C 276.5,250.5 277.5,250.5 278.5,250.5C 278.443,248.116 278.777,245.782 279.5,243.5C 282.423,240.746 284.423,237.413 285.5,233.5C 281.45,226.221 278.116,219.221 275.5,212.5C 273.641,212.539 272.308,211.706 271.5,210C 272.124,206.004 270.791,202.504 267.5,199.5C 265.925,200.456 264.258,201.123 262.5,201.5C 263.063,196.488 265.229,195.488 269,198.5C 276.224,209.785 283.058,221.285 289.5,233C 280.518,249.143 271.185,264.977 261.5,280.5 Z"/></g>
<g><path style="opacity:0.553" fill="#e1c195" d="M 262.5,201.5 C 262.662,203.527 262.495,205.527 262,207.5C 258.925,211.216 256.425,215.216 254.5,219.5C 254.543,220.416 254.876,221.083 255.5,221.5C 255.5,222.5 255.5,223.5 255.5,224.5C 260.956,229.708 260.79,234.708 255,239.5C 254.667,241.167 254.333,242.833 254,244.5C 250.928,247.702 248.095,251.035 245.5,254.5C 249.349,247.307 253.349,240.14 257.5,233C 255.113,229.057 253.113,224.891 251.5,220.5C 254.793,213.892 258.459,207.559 262.5,201.5 Z"/></g>
<g><path style="opacity:0.714" fill="#e1c29c" d="M 196.5,239.5 C 200.293,244.316 203.293,249.65 205.5,255.5C 202.082,252.475 199.248,248.808 197,244.5C 196.506,242.866 196.34,241.199 196.5,239.5 Z"/></g>
<g><path style="opacity:0.447" fill="#e3c398" d="M 190.5,198.5 C 192.516,199.456 194.349,200.79 196,202.5C 196.333,203.833 196.667,205.167 197,206.5C 200.737,208.677 202.737,212.01 203,216.5C 206.782,221.424 210.282,226.424 213.5,231.5C 216.464,237.479 219.464,243.479 222.5,249.5C 224.39,249.703 225.89,249.037 227,247.5C 228.502,244.982 230.002,242.482 231.5,240C 232.448,239.517 233.448,239.351 234.5,239.5C 232.28,244.272 229.78,248.938 227,253.5C 225.951,254.517 224.784,254.684 223.5,254C 212.363,235.555 201.363,217.055 190.5,198.5 Z"/></g>
<g><path style="opacity:0.529" fill="#e1c39a" d="M 206.5,256.5 C 212.124,267.068 218.29,277.402 225,287.5C 225.278,286.584 225.778,285.918 226.5,285.5C 226.778,287.346 226.111,288.68 224.5,289.5C 222.971,288.237 221.305,287.237 219.5,286.5C 219.573,284.973 218.906,283.973 217.5,283.5C 215.717,277.933 213.384,272.6 210.5,267.5C 208.337,264.166 207.004,260.5 206.5,256.5 Z"/></g>
<g><path style="opacity:1" fill="#deb072" d="M 196.5,239.5 C 196.34,241.199 196.506,242.866 197,244.5C 199.248,248.808 202.082,252.475 205.5,255.5C 206.167,255.5 206.5,255.833 206.5,256.5C 207.004,260.5 208.337,264.166 210.5,267.5C 206.876,273.814 208.043,279.147 214,283.5C 214.49,284.793 214.657,286.127 214.5,287.5C 213.325,287.719 212.325,287.386 211.5,286.5C 210.826,284.483 209.659,282.817 208,281.5C 207.51,280.207 207.343,278.873 207.5,277.5C 204.708,277.452 202.875,278.785 202,281.5C 200.005,279.171 198.838,279.838 198.5,283.5C 199.904,285.547 199.571,287.213 197.5,288.5C 196.281,286.058 194.781,283.724 193,281.5C 190.729,276.182 188.562,270.849 186.5,265.5C 185.167,265.5 183.833,265.5 182.5,265.5C 181.833,265.5 181.5,265.167 181.5,264.5C 181.338,256.731 178.171,250.064 172,244.5C 169.98,240.053 167.813,235.72 165.5,231.5C 164.294,229.516 164.294,227.516 165.5,225.5C 168.446,224.345 171.446,224.179 174.5,225C 174.167,225.333 173.833,225.667 173.5,226C 174.549,226.492 175.549,226.326 176.5,225.5C 177.665,226.491 178.832,227.491 180,228.5C 181.559,227.971 183.059,227.304 184.5,226.5C 188.128,231.13 192.128,235.464 196.5,239.5 Z"/></g>
<g><path style="opacity:0.725" fill="#e3c699" d="M 245.5,254.5 C 243.457,260.132 241.123,265.632 238.5,271C 237.246,273.701 235.246,275.534 232.5,276.5C 236.012,268.661 240.346,261.327 245.5,254.5 Z"/></g>
<g><path style="opacity:1" fill="#deb06f" d="M 210.5,267.5 C 213.384,272.6 215.717,277.933 217.5,283.5C 217.111,286.3 216.611,288.967 216,291.5C 219.415,293.123 222.582,295.123 225.5,297.5C 229.305,298.833 233.139,300.5 237,302.5C 237.667,305.833 237.667,309.167 237,312.5C 234.733,314.449 233.066,316.782 232,319.5C 229.624,316.986 228.957,313.986 230,310.5C 231.411,308.35 232.245,306.016 232.5,303.5C 227.186,302.487 224.852,304.654 225.5,310C 226.618,314.138 227.118,318.305 227,322.5C 225.615,323.551 224.615,324.884 224,326.5C 223.517,325.552 223.351,324.552 223.5,323.5C 222.5,323.5 221.5,323.5 220.5,323.5C 221.229,318.87 221.563,314.203 221.5,309.5C 218.234,309.433 216.734,311.099 217,314.5C 216.329,315.252 215.496,315.586 214.5,315.5C 208.044,306.904 202.377,297.904 197.5,288.5C 199.571,287.213 199.904,285.547 198.5,283.5C 198.838,279.838 200.005,279.171 202,281.5C 202.875,278.785 204.708,277.452 207.5,277.5C 207.343,278.873 207.51,280.207 208,281.5C 209.659,282.817 210.826,284.483 211.5,286.5C 212.325,287.386 213.325,287.719 214.5,287.5C 214.657,286.127 214.49,284.793 214,283.5C 208.043,279.147 206.876,273.814 210.5,267.5 Z"/></g>
<g><path style="opacity:1" fill="#ddb176" d="M 255.5,224.5 C 258.084,224.569 260.084,225.735 261.5,228C 260.878,233.068 260.878,238.068 261.5,243C 260.347,244.883 258.681,245.716 256.5,245.5C 255.335,248.693 253.669,251.693 251.5,254.5C 252.981,258.305 252.814,261.972 251,265.5C 249.833,263.833 248.667,262.167 247.5,260.5C 245.474,261.37 244.141,262.87 243.5,265C 245.052,267.781 247.385,269.448 250.5,270C 249.565,272.381 249.232,274.881 249.5,277.5C 248.167,277.5 246.833,277.5 245.5,277.5C 245.5,275.5 245.5,273.5 245.5,271.5C 243.801,271.34 242.134,271.506 240.5,272C 237.922,275.177 237.256,278.677 238.5,282.5C 240.462,281.146 241.462,281.813 241.5,284.5C 242.664,287.041 242.498,289.375 241,291.5C 238.048,289.807 237.882,287.974 240.5,286C 238.953,284.151 237.119,282.651 235,281.5C 234.082,291.706 228.915,294.873 219.5,291C 219.264,289.549 219.264,288.049 219.5,286.5C 221.305,287.237 222.971,288.237 224.5,289.5C 226.111,288.68 226.778,287.346 226.5,285.5C 228.265,282.291 230.265,279.291 232.5,276.5C 235.246,275.534 237.246,273.701 238.5,271C 241.123,265.632 243.457,260.132 245.5,254.5C 248.095,251.035 250.928,247.702 254,244.5C 254.333,242.833 254.667,241.167 255,239.5C 260.79,234.708 260.956,229.708 255.5,224.5 Z"/></g>
<g><path style="opacity:0.725" fill="#debd92" d="M 182.5,265.5 C 183.833,265.5 185.167,265.5 186.5,265.5C 188.562,270.849 190.729,276.182 193,281.5C 194.781,283.724 196.281,286.058 197.5,288.5C 202.377,297.904 208.044,306.904 214.5,315.5C 213.637,319.162 214.97,321.328 218.5,322C 218.043,322.414 217.709,322.914 217.5,323.5C 219.79,328.409 221.79,333.409 223.5,338.5C 226.315,337.771 228.315,336.771 229.5,335.5C 229.159,340.028 226.992,341.361 223,339.5C 209.234,314.967 195.734,290.3 182.5,265.5 Z"/></g>
<g><path style="opacity:1" fill="#deb074" d="M 243.5,307.5 C 242.955,309.593 242.122,311.593 241,313.5C 235.102,319.777 231.269,327.111 229.5,335.5C 228.315,336.771 226.315,337.771 223.5,338.5C 221.79,333.409 219.79,328.409 217.5,323.5C 217.709,322.914 218.043,322.414 218.5,322C 214.97,321.328 213.637,319.162 214.5,315.5C 215.496,315.586 216.329,315.252 217,314.5C 216.734,311.099 218.234,309.433 221.5,309.5C 221.563,314.203 221.229,318.87 220.5,323.5C 221.5,323.5 222.5,323.5 223.5,323.5C 223.351,324.552 223.517,325.552 224,326.5C 224.615,324.884 225.615,323.551 227,322.5C 227.118,318.305 226.618,314.138 225.5,310C 224.852,304.654 227.186,302.487 232.5,303.5C 232.245,306.016 231.411,308.35 230,310.5C 228.957,313.986 229.624,316.986 232,319.5C 233.066,316.782 234.733,314.449 237,312.5C 237.667,309.167 237.667,305.833 237,302.5C 233.139,300.5 229.305,298.833 225.5,297.5C 229.911,297.979 234.078,297.312 238,295.5C 239.106,300.032 240.939,304.032 243.5,307.5 Z"/></g>
<g><path style="opacity:0.865" fill="#e1c099" d="M 260.5,282.5 C 250.404,300.366 240.071,318.033 229.5,335.5C 231.269,327.111 235.102,319.777 241,313.5C 242.122,311.593 242.955,309.593 243.5,307.5C 245.374,303.462 247.541,299.462 250,295.5C 250.49,294.207 250.657,292.873 250.5,291.5C 251.404,290.791 251.737,289.791 251.5,288.5C 255.806,288.697 257.806,286.697 257.5,282.5C 258.5,282.5 259.5,282.5 260.5,282.5 Z"/></g>
</svg>
